<?xml version="1.0" encoding="UTF-8" standalone="no"?>
<svg
   xmlns:dc="http://purl.org/dc/elements/1.1/"
   xmlns:cc="http://creativecommons.org/ns#"
   xmlns:rdf="http://www.w3.org/1999/02/22-rdf-syntax-ns#"
   xmlns:svg="http://www.w3.org/2000/svg"
   xmlns="http://www.w3.org/2000/svg"
   version="1.1"
   id="svg10067"
   viewBox="0 0 1137.2313 313.15101"
   height="88.378174mm"
   width="320.95193mm">
  <defs
     id="defs10069">
    <clipPath
       id="clipPath5984"
       clipPathUnits="userSpaceOnUse">
      <path
         style="clip-rule:evenodd"
         id="path5986"
         d="m -20.93611,1432 1483.93711,0 0,-883 -1486.001,0 2.06389,883 z" />
    </clipPath>
    <clipPath
       id="clipPath5990"
       clipPathUnits="userSpaceOnUse">
      <path
         id="path5992"
         d="m 0,0 1440,0 0,4886 L 0,4886 0,0 Z" />
    </clipPath>
    <clipPath
       id="clipPath5996"
       clipPathUnits="userSpaceOnUse">
      <path
         id="path5998"
         d="m 0,549 1440,0 0,883 -1440,0 0,-883 z" />
    </clipPath>
    <clipPath
       id="clipPath6000"
       clipPathUnits="userSpaceOnUse">
      <path
         id="path6002"
         d="m 0,549 1440,0 0,883 -1440,0 0,-883 z" />
    </clipPath>
    <clipPath
       id="clipPath6004"
       clipPathUnits="userSpaceOnUse">
      <path
         id="path6006"
         d="m 0,549 1440,0 0,883 -1440,0 0,-883 z" />
    </clipPath>
    <clipPath
       id="clipPath6008"
       clipPathUnits="userSpaceOnUse">
      <path
         id="path6010"
         d="m 503,549 910,0 0,251 -910,0 0,-251 z" />
    </clipPath>
    <clipPath
       id="clipPath6012"
       clipPathUnits="userSpaceOnUse">
      <path
         style="clip-rule:evenodd"
         id="path6014"
         d="m 944.9949,171.6085 467.7901,0 0,584.901 -467.7901,0 0,-584.901 0,0 z" />
    </clipPath>
    <clipPath
       id="clipPath6016"
       clipPathUnits="userSpaceOnUse">
      <path
         id="path6018"
         d="m 503,549 911,0 0,251 -911,0 0,-251 z" />
    </clipPath>
    <clipPath
       id="clipPath6020"
       clipPathUnits="userSpaceOnUse">
      <path
         id="path6022"
         d="m 944,549 469,0 0,208 -469,0 0,-208 z" />
    </clipPath>
    <clipPath
       id="clipPath6024"
       clipPathUnits="userSpaceOnUse">
      <path
         style="clip-rule:evenodd"
         id="path6026"
         d="m 1335.721,281.9573 c 0.6,1.848 6.027,9.7691 7.536,10.46 l 3.405,0 c 1.153,0.4321 0.986,1.5836 2.674,1.9447 0.244,-0.2417 0.488,-0.4862 0.727,-0.7307 -2.537,-5.311 -6.766,-12.0294 -14.342,-11.674 m 77.064,8.5124 c -0.244,6.5734 -2.515,13.3401 -4.373,18.9724 -0.168,0.5033 1.077,1.7116 0.971,2.9171 -0.315,3.7103 -0.787,9.8459 -0.971,12.8937 -0.893,1.7827 -1.782,3.5654 -2.674,5.3509 -1.578,3.7984 -1.555,7.2244 -3.166,11.1878 -0.804,1.0548 -1.62,2.1096 -2.424,3.1645 -0.5,1.2964 0.054,2.3513 -0.489,3.8894 -0.844,2.4053 -2.898,3.0763 -4.135,4.8647 -1.17,1.703 -1.315,3.9832 -2.432,5.5953 -2.086,3.0223 -5.922,4.6912 -8.019,7.5401 -4.501,6.1099 -9.074,11.3044 -13.615,17.5138 -1.054,0.8103 -2.103,1.6206 -3.157,2.4309 -13.182,21.1589 -26.18,42.221 -39.627,63.2405 -2.654,4.1425 -8.647,7.9495 -11.668,11.6769 -6.255,7.7078 -12.504,15.4526 -18.721,23.348 -2.774,3.5227 -7.076,5.8029 -9.724,9.4876 -2.248,3.1218 -4.368,6.8833 -7.537,9.0015 -0.809,0.3213 -1.619,0.6454 -2.432,0.9695 l -4.379,7.2984 c -4.072,5.0182 -10.821,7.9637 -16.283,11.674 -1.228,0.8331 -1.986,3.3692 -3.163,4.3785 -4.029,3.463 -8.241,5.601 -12.881,8.5124 -0.407,0.7307 -0.813,1.4614 -1.216,2.1893 -0.975,0.4861 -1.947,0.9752 -2.922,1.4614 -3.319,2.772 -1.193,4.8248 -7.536,6.3231 -1.946,6.0531 -10.213,4.6173 -15.314,6.8094 -0.838,0.3611 -1.091,2.1409 -1.946,2.6783 -1.214,0.4037 -2.433,0.8103 -3.646,1.214 -2.367,1.5865 -5.496,4.1283 -8.022,5.3508 -3.572,1.7315 -7.34,1.524 -11.182,3.1616 -0.486,0.5687 -0.972,1.1373 -1.461,1.7059 -1.458,0.0796 -2.915,0.1592 -4.373,0.2417 -3.422,1.3278 -6.925,1.7343 -11.427,2.9171 -2.677,1.1344 -5.348,2.2717 -8.022,3.4061 -6.973,1.7969 -11.159,0.8188 -17.993,2.1892 -6.459,1.2965 -13.913,4.1766 -21.145,5.1092 -6.505,0.8359 -13.765,-2.6072 -21.151,-2.4338 -1.478,1.8794 -3.728,2.9114 -5.351,4.623 3.208,5.5925 -6.976,17.7129 -8.508,23.1064 -1.117,3.9349 -0.207,7.0368 0.486,9.4848 0.509,1.8082 -0.48,12.4303 -0.486,15.8108 1.702,1.1373 2.458,3.2156 3.89,4.6202 2.316,2.2745 5.437,3.5823 8.022,5.5953 1.308,1.015 7.824,9.9596 8.75,11.674 2.433,6.3261 4.865,12.6493 7.295,18.9724 4.129,6.2237 9.522,11.3841 13.856,17.2723 2.432,4.0515 4.862,8.1058 7.294,12.1602 2.313,3.4118 11.162,20.7465 5.837,26.2679 -8.241,8.5409 -23.353,-2.7777 -30.392,-6.0786 -4.328,-2.0329 -7.814,-4.3472 -12.398,-5.5982 -5.203,-1.4188 -10.213,3.1445 -13.126,5.1091 -4.279,2.8887 -11.133,2.6897 -15.316,5.5954 -0.89,1.2168 -1.785,2.4337 -2.674,3.6477 -1.137,0.9753 -2.268,1.9476 -3.402,2.92 -2.097,5.837 4.854,18.6824 -4.135,19.4586 -2.353,-1.6121 -6.254,-9.0157 -8.996,-8.5125 -4.669,0.0683 -9.051,2.4196 -14.584,3.645 -4.459,-0.4037 -8.914,-0.8075 -13.373,-1.214 -4.956,1.6007 -10.733,4.0827 -15.314,5.837 -4.061,1.5552 -10.244,1.5495 -11.9149,-2.1893 0.0849,-0.6482 0.1649,-1.2965 0.2439,-1.9447 -0.9288,-3.1332 -6.2655,-5.3764 -8.9963,-6.8094 -0.6423,0.0796 -5.1037,-2.8403 -5.1037,-3.1616 -1.4379,-1.5523 -4.2029,-6.8975 -5.1008,-7.54 -0.7701,-0.4436 -0.503,-0.9042 -0.4888,-1.7031 1.3867,-6.036 -3.106,-14.4233 -1.2162,-21.8923 1.955,-7.7306 5.6464,-15.1569 6.5671,-22.8647 0.6877,-5.7887 -0.2757,-16.8117 -1.4606,-23.3509 -0.0796,-4.296 -0.162,-8.5921 -0.2444,-12.8909 -1.1651,-7.452 -1.3441,-14.7731 -2.9156,-20.9172 -0.7076,-2.7635 2.0204,-7.8954 1.2134,-10.9461 -0.9122,-3.446 -2.4438,-5.2798 -1.4549,-9.4848 2.0232,-1.379 4.0494,-2.7551 6.0755,-4.134 -2.1853,-7.3183 -9.6078,-11.7792 -13.6145,-17.5139 -4.4018,-6.2976 -6.391,-17.4627 -8.2665,-25.0511 -2.1512,-8.7 -18.5449,-8.6204 -20.2328,-17.0476 0,-5.2712 17.3172,-20.2518 17.3172,-25.5202 -1.0798,-5.1148 -2.799,-11.7508 -1.9465,-16.7832 0.8496,-5.0267 0.7019,-9.1208 2.4325,-14.1078 0.412,-1.1941 1.7874,-2.3882 1.6993,-3.6477 -0.1279,-1.8566 1.6396,-4.623 2.1881,-6.0816 1.1907,-3.1615 0.3722,-5.9336 1.2162,-8.754 0.2359,-0.7819 3.0719,-4.1226 1.7022,-5.3537 2.6314,-3.9577 6.5444,-8.4982 8.7524,-12.6464 0.6507,-1.7827 1.293,-3.5682 1.9437,-5.3508 0.7332,-0.4066 1.4578,-0.8132 2.1881,-1.2169 1.0202,-1.8111 0.7928,-3.2355 1.9466,-5.1063 0.8894,-0.4891 1.7817,-0.9752 2.674,-1.4614 1.293,-1.6121 1.1878,-4.2136 2.6712,-5.5925 1.3157,-1.2226 3.4583,-2.0784 4.6206,-3.409 1.1963,-1.3647 0.5797,-3.5482 1.6993,-5.1034 0.5996,-0.8302 2.5064,-1.3875 3.1656,-2.1921 -0.0852,-0.6483 -0.1619,-1.2965 -0.2444,-1.9447 0.8099,-0.6483 1.62,-1.2994 2.43,-1.9448 1.648,-2.6327 1.173,-5.7801 2.918,-8.2707 0.495,-0.7051 1.822,-0.6909 2.188,-1.7031 -0.082,-0.7307 -0.162,-1.4614 -0.244,-2.1892 0.426,-0.7193 2.404,-1.2652 2.915,-2.1893 2.643,-4.748 3.805,-11.6342 5.348,-16.5415 5.03,-1.3419 2.76,-6.1611 4.135,-9.9709 0.486,-0.4066 0.972,-0.8103 1.461,-1.2141 0.534,-1.3931 0.682,-3.716 0.972,-4.6229 0.369,-1.1657 -3.052,-19.8254 -3.891,-22.6202 -2.438,-8.1286 -2.858,-15.1911 -4.617,-25.2957 -0.407,-1.541 -0.81,-3.0819 -1.217,-4.6229 0.205,-0.762 1.492,-3.0621 1.702,-4.1368 0.827,-4.279 -0.392,-7.8159 0.972,-12.1602 1.998,-6.363 7.312,-12.1574 9.236,-18.9725 -0.159,-6.2436 -0.324,-12.4871 -0.486,-18.7279 0.449,-6.3601 1.043,-18.0228 -1.211,-24.5677 -1.949,-4.2961 -3.893,-8.5949 -5.836,-12.8881 -1.401,-3.6989 0.159,-4.9471 -2.916,-8.0291 l -8.752,0 c -4.064,-1.487 -12.3021,-14.7133 -10.9409,-21.645 1.0514,-2.1096 2.1028,-4.2192 3.1571,-6.3289 3.2281,-4.549 24.6118,-8.7882 34.0378,-6.3203 5.732,1.5012 7.456,5.4617 11.179,8.7541 1.054,0.6482 2.111,1.2993 3.166,1.9447 6.331,7.6225 6.453,17.5679 9.963,28.4601 1.503,4.6542 7.337,6.0417 8.752,11.1878 0.983,3.5682 0.176,7.2984 0.486,10.46 0.813,2.5134 1.623,5.0267 2.433,7.5401 0.565,3.4857 1.133,6.9742 1.705,10.46 2.458,8.9929 5.546,19.6149 8.019,28.4572 0.568,4.0543 1.136,8.1087 1.702,12.163 2.049,7.8557 5.675,15.8393 8.994,22.3757 1.463,2.8773 0.815,6.3346 1.702,8.9986 1.759,5.2741 7.09,25.1279 11.185,27.2432 4.527,2.3428 7.044,-1.8537 10.938,0.4862 0.895,-0.8899 1.781,-1.7855 2.676,-2.6754 4.425,0.3639 7.17,-2.2575 10.449,-3.4033 -0.642,-2.6726 -1.176,-4.1795 1.705,-5.5954 -2.017,-15.3729 6.894,-20.6328 13.126,-28.7017 0.406,-1.0548 0.81,-2.1096 1.216,-3.1616 3.567,-4.3784 7.133,-8.7569 10.696,-13.1354 4.24,-4.4552 10.006,-7.8471 13.857,-12.6492 0.639,-0.7961 2.361,-2.4565 2.676,-3.1616 0.08,-0.8103 0.162,-1.6206 0.245,-2.4309 l 1.458,0 5.345,-6.0815 c 2.876,-5.1149 4.527,-10.8239 7.783,-15.8109 3.618,-5.547 18.42,-21.3976 12.154,-31.1326 -7.525,-1.5381 -15.396,0.9894 -22.853,2.9171 -6.132,1.5893 -18.584,-1.9959 -22.119,-0.4862 -6.582,2.8091 -13.348,5.1461 -20.668,6.8122 -5.951,1.3534 -22.256,-8.9161 -23.339,-12.8909 0.165,-1.6206 0.327,-3.2468 0.486,-4.8646 2.219,-11.5177 3.967,-9.2232 12.157,-14.1078 1.62,-0.9723 3.239,-1.9475 4.862,-2.9199 3.163,0.0824 6.32,0.1621 9.485,0.2445 0.887,-0.3241 1.779,-0.6511 2.672,-0.9724 4.47,-0.9098 17.075,-0.0767 16.774,-3.4061 -3.04,-1.1344 -10.551,-6.4084 -9.48,-11.1906 0.645,-1.5382 1.293,-3.0792 1.944,-4.6202 1.125,-4.7793 0.554,-7.1363 2.913,-10.2155 4.455,-5.8057 31.193,-9.5018 43.765,-6.8093 3.89,1.6206 7.774,3.2412 11.665,4.8618 8.073,2.9569 14.833,4.8902 21.633,8.7569 3.51,1.9931 6.281,5.385 10.213,7.0539 3.121,1.3249 7.548,0.2985 11.43,1.2169 2.813,0.6681 5.72,3.1644 7.78,4.8646 3.109,2.5702 4.24,7.287 7.531,9.7293 6.212,4.6116 12.745,9.118 19.21,13.1354 3.452,2.1466 5.578,7.3524 10.696,7.5401 0.338,-1.2197 0.082,-1.0207 1.457,-1.2169 1.217,0.3241 2.433,0.6483 3.649,0.9724 0.497,-0.5374 0.333,-0.4578 1.214,-0.7279 -0.049,-1.4841 -0.111,-1.1856 0.483,-2.1892 l 0.244,0 c 4.28,0.6681 3.609,0.4776 7.295,-0.9752 1.381,0.327 2.756,0.6511 4.134,0.9752 1.597,0.3099 7.386,-1.9504 8.264,-2.6754 1.461,0.8899 2.918,1.7826 4.373,2.6754 0.245,-0.0825 0.489,-0.1621 0.733,-0.2445 -0.704,-0.9838 -1.483,-1.5495 -0.733,-2.6754 1.199,0.3838 3.214,-0.1905 4.379,-1.2169 l 0,-0.9724 0.972,0 c 1.586,1.3392 3.174,2.6783 5.84,2.92 0.815,-2.4537 4.277,-0.6113 6.07,-0.4862 -0.123,-1.7002 -0.043,-1.5751 0.733,-2.6754 0.162,-0.0853 0.321,-0.1649 0.489,-0.2445 1.31,0.3809 4.845,3.6079 6.072,1.9447 0.66,-0.8899 -0.139,-1.8651 0.489,-2.6726 0.321,-0.327 0.648,-0.6511 0.969,-0.9752 l 0.489,0 c 1.071,1.8935 2.927,4.7936 5.345,4.623 l 0,-0.2445 c -0.338,-0.8672 -0.372,-0.9354 -0.239,-1.9448 l 0.972,0 c 1.503,1.5638 2.87,3.2981 5.59,3.6478 0.338,-0.9866 0.239,-0.7221 0.969,-1.2169 0.679,0.5516 0.591,0.2701 0.733,1.4586 l 0.972,0 c 0.199,-1.3818 0.193,-1.6263 1.46,-2.4309 3.447,2.1892 8.67,4.6315 10.214,9.4848 l 0.969,0 c 0.568,-0.6454 1.133,-1.2965 1.705,-1.9447 l 0.483,0 c 0.403,1.214 0.809,2.4309 1.216,3.6477 l 1.702,0 c 0.284,1.3619 0.483,3.0905 1.699,3.6478 0.06,-1.3022 0.088,-1.3334 0.734,-1.9419 0.244,0.1592 0.483,0.3213 0.727,0.4834 2.285,6.0673 12.648,8.8394 13.131,14.1049 1.791,-0.2587 2.353,0.0512 3.641,0.7335 0.531,3.3578 2.696,4.4382 2.674,8.0263 0.65,0.162 1.298,0.3241 1.949,0.4862 0.321,1.2993 0.648,2.5929 0.972,3.8894 1.009,-0.1933 0.915,-0.3184 1.702,-0.2417 0.423,3.716 1.023,5.5783 0.728,9.246 1.753,0.6596 0.383,6.7667 2.674,8.9986 -1.546,3.5767 -0.887,6.5649 1.699,8.7541 M 979.6578,734.0854 c -1.1225,-0.9354 -20.3437,8.7968 -21.7219,9.283 l -0.7303,0 0,-0.2417 c 1.3896,-0.4549 20.9063,-10.3292 22.4522,-9.0413 m -1.4692,5.5812 c -0.5711,0.2445 -18.7835,12.8312 -19.3519,13.0728 l -0.483,0 c 0.7047,-0.7449 18.0901,-13.8234 20.3209,-13.8007 -0.2956,-0.003 -0.3268,0.4862 -0.486,0.7279 m -0.7871,16.8429 c -0.1222,-1.3221 6.1323,-8.811 7.3145,-9.8829 -0.1762,2.2433 -6.4251,7.9239 -7.3145,9.8829 m 8.7325,-16.3027 c -1.0429,3.2668 -12.296,9.5103 -14.2937,12.1033 0.2785,-1.9987 12.1653,-10.9234 14.2937,-12.1033" />
    </clipPath>
    <clipPath
       id="clipPath6028"
       clipPathUnits="userSpaceOnUse">
      <path
         id="path6030"
         d="m 944,549 469,0 0,208 -469,0 0,-208 z" />
    </clipPath>
    <clipPath
       id="clipPath6032"
       clipPathUnits="userSpaceOnUse">
      <path
         style="clip-rule:evenodd"
         id="path6034"
         d="m 980.5478,799.5208 -477.5478,0 0,-584.8988 477.5478,0 0,584.8988 0,0 z" />
    </clipPath>
    <clipPath
       id="clipPath6036"
       clipPathUnits="userSpaceOnUse">
      <path
         id="path6038"
         d="m 503,549 911,0 0,251 -911,0 0,-251 z" />
    </clipPath>
    <clipPath
       id="clipPath6040"
       clipPathUnits="userSpaceOnUse">
      <path
         id="path6042"
         d="m 503,549 478,0 0,251 -478,0 0,-251 z" />
    </clipPath>
    <clipPath
       id="clipPath6044"
       clipPathUnits="userSpaceOnUse">
      <path
         style="clip-rule:evenodd"
         id="path6046"
         d="m 565.7212,336.6466 c 0.2443,0.2417 0.4859,0.4862 0.7303,0.7279 1.6879,-0.3611 1.5174,-1.5097 2.6712,-1.9447 l 3.4071,0 c 1.509,-0.6938 6.9366,-8.612 7.5362,-10.46 -7.5788,-0.3497 -11.8044,6.363 -14.3448,11.6768 m 345.6969,115.5348 c 1.7448,2.4906 1.2731,5.638 2.9184,8.2707 0.8099,0.6483 63.5799,-5.6124 66.2113,-1.6547 -1.3697,1.2311 -2.1625,19.3818 -1.9295,20.158 0.8497,2.8204 -8.8632,12.1716 -7.6754,15.3332 0.5484,1.4585 0.8582,8.7456 0.7303,10.6021 -0.0881,1.2596 2.1426,11.9669 2.5604,13.1639 1.7249,4.9869 -6.3341,12.5213 -5.4845,17.5508 0.8554,5.0324 0.4121,20.4281 -0.6678,25.543 0,5.2712 -5.8425,10.5424 -5.8425,15.808 -1.6908,8.43 -9.5282,18.0626 -11.6793,26.7598 -1.8755,7.5884 -3.8647,18.7535 -8.2665,25.054 -4.0096,5.7318 -11.4293,10.1927 -13.6117,17.511 2.0205,1.3789 4.0466,2.7579 6.0727,4.134 0.9861,4.205 -0.5427,6.0388 -1.4549,9.4847 -0.8099,3.0564 1.921,8.1855 1.2134,10.9462 -1.5715,6.1441 -1.7505,13.4652 -2.9156,20.92 -0.0824,4.296 -0.162,8.5949 -0.2444,12.8909 -1.185,6.5364 -2.1483,17.5594 -1.4606,23.3481 0.9235,7.7078 4.6064,15.1341 6.5671,22.8647 1.8897,7.4689 -2.603,15.8591 -1.2162,21.8923 0.0142,0.8018 0.2813,1.2624 -0.4888,1.7002 -0.898,0.6483 -3.6629,5.9906 -5.1037,7.5429 0,0.3242 -4.4586,3.2412 -5.1036,3.1588 -2.7252,1.4358 -8.0647,3.679 -8.9968,6.8122 0.0824,0.6482 0.1648,1.2965 0.2444,1.9447 -1.6681,3.7416 -7.8516,3.7445 -11.9124,2.1921 -4.5779,-1.7542 -10.3579,-4.2392 -15.3167,-5.8399 -4.4557,0.4066 -8.9143,0.8132 -13.3701,1.2169 -5.5328,-1.2282 -9.9147,-3.5795 -14.5864,-3.6478 -2.7365,-0.5032 -6.641,6.9004 -8.9939,8.5125 -8.9854,-0.7734 -2.0347,-13.6216 -4.1318,-19.4586 l -3.4044,-2.92 -2.674,-3.6477 c -4.183,-2.9057 -11.0371,-2.7039 -15.3139,-5.5954 -2.9155,-1.9646 -7.9283,-6.525 -13.1314,-5.1063 -4.578,1.251 -8.0647,3.5625 -12.3983,5.5953 -7.0332,3.301 -22.1452,14.6224 -30.3861,6.0787 -5.3282,-5.5186 3.518,-22.8533 5.8339,-26.2679 2.4297,-4.0544 4.8622,-8.1059 7.2918,-12.1631 4.3336,-5.8797 9.7328,-11.0457 13.8561,-17.2665 2.4325,-6.3261 4.8649,-12.6492 7.2946,-18.9724 0.9292,-1.7145 7.4481,-10.6619 8.7524,-11.6769 2.5859,-2.013 5.7061,-3.3208 8.0221,-5.5925 1.4322,-1.4045 2.1881,-3.4857 3.8902,-4.623 -0.006,-3.3805 -0.9946,-14.0026 -0.4887,-15.8108 0.6933,-2.448 1.6055,-5.5499 0.4887,-9.4848 -1.5288,-5.3935 -11.7162,-17.5139 -8.508,-23.1064 -1.6226,-1.7116 -3.8732,-2.7436 -5.348,-4.623 -7.3884,-0.1734 -14.6489,3.2697 -21.1507,2.4338 -7.2349,-0.9297 -14.6887,-3.8127 -21.1507,-5.1092 -6.8286,-1.3675 -11.0172,-0.3923 -17.9907,-2.1892 -2.6712,-1.1344 -5.3481,-2.2689 -8.0221,-3.4061 -4.5012,-1.1828 -8.005,-1.5893 -11.4264,-2.9171 -1.4578,-0.0825 -2.9184,-0.1649 -4.3762,-0.2445 -0.4859,-0.5658 -0.9719,-1.1344 -1.4578,-1.7002 -3.8448,-1.6405 -7.6072,-1.433 -11.182,-3.1645 -2.5291,-1.2197 -5.655,-3.7643 -8.0221,-5.3508 -1.2163,-0.4037 -2.4325,-0.8103 -3.6487,-1.214 -0.8525,-0.5374 -1.1083,-2.3172 -1.9466,-2.6783 -5.098,-2.1921 -13.3616,-0.7563 -15.3139,-6.8094 -6.3369,-1.4983 -4.217,-3.5511 -7.5361,-6.3232 -0.9719,-0.4861 -1.9466,-0.9752 -2.9156,-1.4613 -0.4063,-0.7279 -0.8127,-1.4586 -1.2162,-2.1893 -4.6433,-2.9085 -8.8547,-5.0466 -12.8842,-8.5124 -1.1736,-1.0093 -1.9381,-3.5454 -3.1628,-4.3785 -5.4617,-3.7103 -12.2136,-6.6558 -16.2886,-11.674 -1.4549,-2.4337 -2.9155,-4.8646 -4.3733,-7.2955 -0.8099,-0.327 -1.6198,-0.6511 -2.4325,-0.9724 -3.1685,-2.121 -5.2884,-5.8797 -7.5333,-9.0015 -2.6542,-3.6847 -6.9536,-5.9649 -9.7271,-9.4847 -6.2148,-7.8984 -12.4665,-15.6431 -18.7182,-23.3509 -3.0236,-3.7274 -9.0195,-7.5316 -11.6708,-11.6769 -13.4469,-21.0195 -26.4448,-42.0788 -39.6245,-63.2376 -1.0543,-0.8132 -2.1085,-1.6235 -3.1628,-2.4338 -4.5353,-6.2066 -9.1105,-11.4039 -13.6117,-17.5138 -2.1,-2.8489 -5.9334,-4.5178 -8.0249,-7.5401 -1.114,-1.6121 -1.256,-3.8923 -2.4297,-5.5954 -1.2333,-1.7883 -3.2878,-2.4593 -4.1318,-4.8646 -0.5399,-1.5382 0.0142,-2.593 -0.4859,-3.8923 -0.8099,-1.052 -1.6198,-2.1068 -2.4325,-3.1587 -1.6084,-3.9663 -1.58,-7.3894 -3.1599,-11.1907 -0.8923,-1.7827 -1.7818,-3.5654 -2.6741,-5.3509 -0.1818,-3.045 -0.6564,-9.1805 -0.9718,-12.8909 -0.1052,-1.2055 1.1366,-2.4166 0.9718,-2.917 -1.8613,-5.6323 -4.1289,-12.4019 -4.3762,-18.9725 2.5888,-2.192 3.2481,-5.1774 1.7022,-8.7569 2.2932,-2.2319 0.9207,-8.3362 2.674,-9.0015 -0.2927,-3.6619 0.3069,-5.5271 0.7303,-9.2402 0.7843,-0.0796 0.6877,0.0483 1.6994,0.2416 0.3268,-1.2964 0.6507,-2.5958 0.9747,-3.8923 0.6507,-0.162 1.2958,-0.3241 1.9465,-0.4861 -0.0227,-3.5881 2.1427,-4.6685 2.6712,-8.0263 1.293,-0.6823 1.85,-0.9894 3.6487,-0.7307 0.4774,-5.2684 10.8411,-8.0404 13.1258,-14.1077 0.2444,-0.1621 0.4859,-0.3242 0.7303,-0.4862 0.6394,0.6141 0.6706,0.6425 0.7303,1.9475 1.2163,-0.5601 1.4152,-2.2887 1.6993,-3.6477 l 1.7022,0 c 0.4064,-1.2169 0.8099,-2.4338 1.2163,-3.6507 l 0.4859,0 c 0.5683,0.6483 1.1338,1.2965 1.7022,1.9476 l 0.9718,0 c 1.5402,-4.8561 6.7661,-7.2984 10.213,-9.4876 1.2589,0.8074 1.2589,1.0491 1.4578,2.4337 l 0.9719,0 c 0.1421,-1.1913 0.054,-0.9098 0.7275,-1.4585 0.7331,0.4975 0.6393,0.2274 0.9747,1.214 2.7166,-0.3469 4.0835,-2.0812 5.5896,-3.6478 l 0.9747,0 c 0.1307,1.0122 0.0994,1.0776 -0.2444,1.9448 l 0,0.2416 c 2.4211,0.1763 4.2767,-2.7237 5.348,-4.6201 l 0.486,0 c 0.3239,0.3241 0.6507,0.6511 0.9718,0.9752 0.628,0.8075 -0.1705,1.7827 0.4888,2.6726 1.2247,1.6632 4.7598,-1.5609 6.0755,-1.9448 0.162,0.0797 0.324,0.1649 0.4859,0.2446 0.7787,1.1003 0.8554,0.9752 0.7303,2.6725 1.796,-0.1222 5.2572,-1.9646 6.0756,0.4891 2.6626,-0.2417 4.2455,-1.578 5.8368,-2.92 l 0.9719,0 0,0.9752 c 1.1622,1.0236 3.1798,1.5979 4.3762,1.2141 0.753,1.1259 -0.0228,1.6945 -0.7304,2.6782 0.2444,0.0796 0.486,0.1592 0.7304,0.2388 1.4577,-0.8899 2.9184,-1.7826 4.3762,-2.6754 0.8752,0.7307 6.6666,2.991 8.2664,2.6754 1.3754,-0.3212 2.7536,-0.6454 4.1318,-0.9695 3.6857,1.45 3.0122,1.6434 7.2946,0.9695 l 0.2416,0 c 0.5939,1.0065 0.5314,0.708 0.4859,2.1921 0.8781,0.2701 0.7133,0.1934 1.2163,0.7307 1.2162,-0.3241 2.4296,-0.6511 3.6458,-0.9752 1.3754,0.199 1.1225,-0.003 1.4578,1.2169 5.1179,-0.1848 7.2406,-5.3907 10.699,-7.5401 6.4591,-4.0145 12.995,-8.5238 19.2041,-13.1325 3.2907,-2.4452 4.4245,-7.162 7.5362,-9.7322 2.0517,-1.6974 4.9644,-4.1965 7.7805,-4.8618 3.8761,-0.9212 8.3062,0.108 11.4264,-1.2197 3.9301,-1.6661 6.7036,-5.058 10.2102,-7.0511 6.803,-3.8723 13.5605,-5.8029 21.6366,-8.7569 3.8874,-1.6206 7.7777,-3.2412 11.668,-4.8646 12.5688,-2.6897 39.3062,1.0064 43.7591,6.8093 2.3615,3.0792 1.7903,5.4362 2.9156,10.2155 0.6507,1.541 1.2958,3.082 1.9437,4.623 1.0713,4.7793 -6.4393,10.0563 -9.4799,11.1878 -0.304,3.3294 12.3045,2.4992 16.7745,3.4061 0.8923,0.3242 1.7846,0.6483 2.674,0.9724 3.1628,-0.0796 6.3228,-0.1621 9.4828,-0.2445 1.6197,0.9752 3.2395,1.9476 4.8621,2.9199 8.1897,4.8817 9.9402,2.593 12.1539,14.1049 0.162,1.6235 0.3239,3.2469 0.4859,4.8675 -1.0798,3.9776 -17.3854,14.2471 -23.3388,12.8909 -7.3173,-1.6661 -14.0862,-4.0031 -20.6619,-6.8122 -3.5379,-1.5069 -15.9873,2.0755 -22.1225,0.489 -7.4594,-1.9305 -15.3281,-4.458 -22.8529,-2.9199 -6.2659,9.735 8.5393,25.5856 12.1568,31.1355 3.2537,4.9869 4.9047,10.6931 7.7777,15.808 l 5.348,6.0815 1.4578,0 c 0.0824,0.8103 0.1648,1.6206 0.2444,2.4337 0.3154,0.7023 2.0375,2.3627 2.674,3.1616 3.8505,4.7993 9.622,8.1912 13.8589,12.6493 3.5635,4.3756 7.1298,8.7541 10.6961,13.1325 0.4064,1.0548 0.8099,2.1097 1.2134,3.1616 6.2347,8.0689 15.1462,13.3288 13.1286,28.7017 2.8815,1.4159 2.3473,2.92 1.7022,5.5954 3.2822,1.1458 6.0272,3.77 10.4546,3.4033 0.8923,0.8927 1.7817,1.7855 2.674,2.6782 3.8931,-2.3428 6.408,1.8538 10.9405,-0.489 4.092,-2.1153 9.423,-21.9691 11.182,-27.2432 0.8895,-2.664 0.2387,-6.1185 1.6994,-8.9986 3.3247,-6.5336 6.9479,-14.52 8.9967,-22.3757 0.5684,-4.0543 1.1339,-8.1087 1.7022,-12.163 2.4723,-8.8394 5.564,-19.4643 8.0221,-28.4572 0.5683,-3.4858 1.1367,-6.9743 1.7022,-10.46 0.8099,-2.5105 1.6197,-5.0267 2.4296,-7.5401 0.3126,-3.1616 -0.4944,-6.8918 0.4888,-10.46 1.4151,-5.1461 7.252,-6.5336 8.7495,-11.1878 3.5124,-10.8894 3.6374,-20.8376 9.9687,-28.4572 1.0514,-0.6483 2.1057,-1.2965 3.1599,-1.9476 3.7255,-3.2924 5.4475,-7.2529 11.1821,-8.7541 9.423,-2.4679 30.8095,1.7741 34.0377,6.3232 1.0543,2.1096 2.1057,4.2164 3.1571,6.326 1.3583,6.9316 -6.8769,20.158 -10.9376,21.645 l -8.7524,0 c -3.0776,3.0848 -1.5175,4.3301 -2.9184,8.0291 -1.9438,4.296 -3.8903,8.5949 -5.834,12.8881 -2.2563,6.5478 -1.6624,18.2076 -1.2163,24.5677 -0.1619,6.2436 -0.3211,12.4872 -0.4859,18.7279 1.9267,6.8151 7.2378,12.6095 9.2383,18.9724 1.364,4.3444 0.145,7.8813 0.9719,12.1631 0.2074,1.0719 1.4947,3.3748 1.7022,4.1368 -0.4036,1.5381 -0.8099,3.0791 -1.2134,4.6201 -1.7591,10.1046 -2.1825,17.1699 -4.6206,25.2956 -0.8383,2.7949 -4.2597,21.4545 -3.8903,22.6202 0.2899,0.9099 0.4405,3.2299 0.9719,4.623 0.4859,0.4038 0.9747,0.8103 1.4606,1.2141 1.3782,3.8098 -0.8951,8.6318 4.1318,9.9738 1.543,4.9016 2.7081,11.7906 5.3481,16.5386 0.5143,0.9241 2.4921,1.47 2.9184,2.1893 -0.0824,0.7307 -0.162,1.4585 -0.2444,2.1892 0.3694,1.0122 1.6936,0.998 2.1881,1.7031 m 32.5288,343.1412 c -1.9977,-2.593 -13.2508,-8.8365 -14.2966,-12.1033 2.1285,1.1799 14.0181,10.1046 14.2966,12.1033 m -12.8786,-5.6835 c 1.1822,1.0747 7.4396,8.5636 7.3174,9.8829 -0.8895,-1.959 -7.1383,-7.6396 -7.3174,-9.8829 m 6.0443,-7.6879 c 2.2307,-0.0227 19.6162,13.0558 20.3209,13.8007 l -0.4831,0 c -0.5655,-0.2416 -18.7835,-12.8283 -19.349,-13.07 -0.162,-0.2445 -0.1961,-0.7335 -0.4888,-0.7307 m -0.9861,-4.8504 c 1.5488,-1.2908 21.0626,8.5863 22.4551,9.0384 l 0,0.2445 -0.7275,0 c -1.3811,-0.4862 -20.6022,-10.2212 -21.7276,-9.2829" />
    </clipPath>
    <clipPath
       id="clipPath6048"
       clipPathUnits="userSpaceOnUse">
      <path
         id="path6050"
         d="m 503,549 478,0 0,251 -478,0 0,-251 z" />
    </clipPath>
  </defs>
  <metadata
     id="metadata10072">
    <rdf:RDF>
      <cc:Work
         rdf:about="">
        <dc:format>image/svg+xml</dc:format>
        <dc:type
           rdf:resource="http://purl.org/dc/dcmitype/StillImage" />
        <dc:title></dc:title>
      </cc:Work>
    </rdf:RDF>
  </metadata>
  <g
     transform="translate(448.3929,-611.0862)"
     id="layer1">
    <g
       clip-path="url(#clipPath5984)"
       id="g5982"
       transform="matrix(1.25,0,0,-1.25,-1077.1429,1610.4872)">
      <g
         clip-path="url(#clipPath5990)"
         id="g5988">
        <g
           id="g5994" />
        <g
           id="g6052">
          <g
             id="g6054"
             clip-path="url(#clipPath5996)">
            <g
               id="g6056" />
            <g
               id="g6058">
              <g
                 id="g6060"
                 clip-path="url(#clipPath6000)" />
            </g>
            <g
               id="g6064">
              <g
                 id="g6066"
                 clip-path="url(#clipPath6004)">
                <g
                   id="g6068" />
                <g
                   id="g6070">
                  <g
                     style="opacity:0.13260001"
                     id="g6072"
                     clip-path="url(#clipPath6008)">
                    <g
                       id="g6074" />
                    <g
                       id="g6076">
                      <g
                         id="g6078"
                         clip-path="url(#clipPath6012)">
                        <g
                           id="g6080"
                           clip-path="url(#clipPath6016)">
                          <g
                             id="g6082" />
                          <g
                             id="g6084">
                            <g
                               id="g6086"
                               clip-path="url(#clipPath6020)">
                              <g
                                 id="g6088" />
                              <g
                                 id="g6090">
                                <g
                                   id="g6092"
                                   clip-path="url(#clipPath6024)">
                                <g
                                   id="g6094"
                                   clip-path="url(#clipPath6028)">
                                <path
                                   id="path6096"
                                   style="fill:#313131;fill-opacity:1;fill-rule:nonzero;stroke:none"
                                   d="m 939.9949,761.5095 477.7901,0 0,-594.9015 -477.7901,0 0,594.9015 z" />
                                </g>
                                </g>
                              </g>
                            </g>
                          </g>
                        </g>
                      </g>
                    </g>
                    <g
                       id="g6098">
                      <g
                         id="g6100"
                         clip-path="url(#clipPath6032)">
                        <g
                           id="g6102"
                           clip-path="url(#clipPath6036)">
                          <g
                             id="g6104" />
                          <g
                             id="g6106">
                            <g
                               id="g6108"
                               clip-path="url(#clipPath6040)">
                              <g
                                 id="g6110" />
                              <g
                                 id="g6112">
                                <g
                                   id="g6114"
                                   clip-path="url(#clipPath6044)">
                                <g
                                   id="g6116"
                                   clip-path="url(#clipPath6048)">
                                <path
                                   id="path6118"
                                   style="fill:#313131;fill-opacity:1;fill-rule:nonzero;stroke:none"
                                   d="m 497.9994,804.522 487.5484,0 0,-594.9 -487.5484,0 0,594.9 z" />
                                </g>
                                </g>
                              </g>
                            </g>
                          </g>
                        </g>
                      </g>
                    </g>
                  </g>
                </g>
              </g>
            </g>
          </g>
        </g>
      </g>
    </g>
  </g>
</svg>
