<?xml version="1.0" encoding="UTF-8" standalone="no"?>
<svg
   xmlns:dc="http://purl.org/dc/elements/1.1/"
   xmlns:cc="http://creativecommons.org/ns#"
   xmlns:rdf="http://www.w3.org/1999/02/22-rdf-syntax-ns#"
   xmlns:svg="http://www.w3.org/2000/svg"
   xmlns="http://www.w3.org/2000/svg"
   version="1.1"
   id="svg7284"
   viewBox="0 0 179.47874 138.45393"
   height="39.074776mm"
   width="50.652889mm">
  <defs
     id="defs7286">
    <clipPath
       id="clipPath5968"
       clipPathUnits="userSpaceOnUse">
      <path
         style="clip-rule:evenodd"
         id="path5970"
         d="m 266.8325,3406.146 c -0.32,-1.93 6.42,-5.09 7.06,0.54 2.89,25.357 -2.08,32.655 -2.08,32.655 l -6.97,-3.902 c 0,0 5.91,-5.628 1.99,-29.293 l 0,0 z m 12.72,44.173 -41.62,23.312 c -3.26,1.826 -8.6,1.826 -11.86,0 l -41.62,-23.312 c -3.27,-1.826 -3.27,-4.813 0,-6.639 l 41.62,-23.313 c 3.26,-1.821 8.6,-1.821 11.86,0 l 26.91,15.072 -29.18,6.835 c -1.13,-0.28 -2.36,-0.436 -3.66,-0.436 -5.26,0 -9.52,2.535 -9.52,5.663 0,3.126 4.26,5.662 9.52,5.662 4.08,0 7.55,-1.532 8.9,-3.678 l 30.91,-10.144 7.74,4.339 c 3.27,1.826 3.27,4.813 0,6.639 l 0,0 z m -81.04,-24.513 c 2.32,-9.399 5.27,-13.5 15.11,-17.809 9.84,-4.3 14.52,-9 18.38,-9 3.86,0 8.24,4.12 18.08,8.42 9.85,4.299 7.22,5.609 9.54,15.009 l -27.62,-13.429 -33.49,16.809 0,0 z" />
    </clipPath>
    <clipPath
       id="clipPath5974"
       clipPathUnits="userSpaceOnUse">
      <path
         id="path5976"
         d="m 0,0 1440,0 0,4886 L 0,4886 0,0 Z" />
    </clipPath>
    <clipPath
       id="clipPath5968-6"
       clipPathUnits="userSpaceOnUse">
      <path
         style="clip-rule:evenodd"
         id="path5970-7"
         d="m 266.8325,3406.146 c -0.32,-1.93 6.42,-5.09 7.06,0.54 2.89,25.357 -2.08,32.655 -2.08,32.655 l -6.97,-3.902 c 0,0 5.91,-5.628 1.99,-29.293 l 0,0 z m 12.72,44.173 -41.62,23.312 c -3.26,1.826 -8.6,1.826 -11.86,0 l -41.62,-23.312 c -3.27,-1.826 -3.27,-4.813 0,-6.639 l 41.62,-23.313 c 3.26,-1.821 8.6,-1.821 11.86,0 l 26.91,15.072 -29.18,6.835 c -1.13,-0.28 -2.36,-0.436 -3.66,-0.436 -5.26,0 -9.52,2.535 -9.52,5.663 0,3.126 4.26,5.662 9.52,5.662 4.08,0 7.55,-1.532 8.9,-3.678 l 30.91,-10.144 7.74,4.339 c 3.27,1.826 3.27,4.813 0,6.639 l 0,0 z m -81.04,-24.513 c 2.32,-9.399 5.27,-13.5 15.11,-17.809 9.84,-4.3 14.52,-9 18.38,-9 3.86,0 8.24,4.12 18.08,8.42 9.85,4.299 7.22,5.609 9.54,15.009 l -27.62,-13.429 -33.49,16.809 0,0 z" />
    </clipPath>
    <clipPath
       id="clipPath5974-5"
       clipPathUnits="userSpaceOnUse">
      <path
         id="path5976-3"
         d="m 0,0 1440,0 0,4886 L 0,4886 0,0 Z" />
    </clipPath>
    <clipPath
       id="clipPath5872"
       clipPathUnits="userSpaceOnUse">
      <path
         style="clip-rule:evenodd"
         id="path5874"
         d="m 253.1162,3498.952 c 4.3876,0.105 8.0773,-5.417 8.2402,-12.328 0.1628,-6.914 -3.2615,-12.6 -7.6486,-12.706 -4.3871,-0.102 -8.0762,5.417 -8.2422,12.329 -0.1622,6.914 3.2612,12.601 7.6506,12.705 m 32.2447,10.624 c 4.4926,-1.198 6.6036,-7.905 4.7154,-14.983 -1.8858,-7.075 -7.0583,-11.842 -11.5481,-10.643 -4.4922,1.197 -6.6049,7.906 -4.717,14.98 1.8877,7.079 7.0572,11.843 11.5497,10.646 m 31.9475,-17.728 c 3.3639,-3.209 1.9913,-10.104 -3.0663,-15.405 -5.0563,-5.298 -11.8804,-6.994 -15.2437,-3.781 -3.3644,3.208 -1.9899,10.107 3.0666,15.404 5.0559,5.299 11.8804,6.99 15.2434,3.782 m 7.6538,-34.27 c 2.0503,-3.803 -1.1443,-9.503 -7.1335,-12.732 -5.9883,-3.232 -12.5078,-2.767 -14.5564,1.034 -2.0501,3.802 1.1421,9.5 7.1311,12.733 5.9905,3.227 12.5083,2.767 14.5588,-1.035 m -77.9433,4.497 c -3.9347,-1.235 -6.0612,-2.291 -7.4052,-3.865 -3.6951,-4.325 -3.4769,-10.811 0.4773,-14.768 2.8393,-2.841 7.3238,-5.174 12.5741,-6.355 9.9405,-2.242 16.491,-6.207 22.4923,-13.357 6.0023,-7.147 17.1236,-6.384 19.9263,1.02 3.4422,9.101 -3.8334,16.67 -4.8413,29.231 -0.1809,2.247 0.2138,4.954 0.3755,7.439 0.3009,4.566 -2.0815,8.669 -6.4282,10.873 -4.7131,2.392 -10.2859,0.254 -13.8075,-2.439 -8.1046,-6.198 -10.4649,-3.731 -23.3633,-7.779" />
    </clipPath>
    <clipPath
       id="clipPath5878"
       clipPathUnits="userSpaceOnUse">
      <path
         id="path5880"
         d="m 0,0 1440,0 0,4886 L 0,4886 0,0 Z" />
    </clipPath>
  </defs>
  <metadata
     id="metadata7289">
    <rdf:RDF>
      <cc:Work
         rdf:about="">
        <dc:format>image/svg+xml</dc:format>
        <dc:type
           rdf:resource="http://purl.org/dc/dcmitype/StillImage" />
        <dc:title></dc:title>
      </cc:Work>
    </rdf:RDF>
  </metadata>
  <g
     transform="translate(-398.83206,-597.42092)"
     id="layer1">
    <g
       id="g5868"
       transform="matrix(1.25,0,0,-1.25,171.33206,4984.6211)">
      <g
         clip-path="url(#clipPath5872)"
         id="g5870">
        <g
           clip-path="url(#clipPath5878)"
           id="g5876">
          <path
             id="path5882"
             style="fill:#a2ce62;fill-opacity:1;fill-rule:nonzero;stroke:none"
             d="m 261.8292,3529.83 85.4026,-49.307 -45.6593,-79.084 -85.4026,49.307 45.6593,79.084 z" />
        </g>
      </g>
    </g>
    <g
       id="g5964"
       transform="matrix(1.25,0,0,-1.25,171.33206,4984.6211)">
      <g
         clip-path="url(#clipPath5968-6)"
         id="g5966">
        <g
           clip-path="url(#clipPath5974-5)"
           id="g5972">
          <path
             id="path5978"
             style="fill:#313131;fill-opacity:1;fill-rule:nonzero;stroke:none"
             d="m 177,3480 110.005,0 0,-86.003 -110.005,0 0,86.003 z" />
        </g>
      </g>
    </g>
  </g>
</svg>
