<?xml version="1.0" encoding="UTF-8" standalone="no"?>
<svg
   xmlns:dc="http://purl.org/dc/elements/1.1/"
   xmlns:cc="http://creativecommons.org/ns#"
   xmlns:rdf="http://www.w3.org/1999/02/22-rdf-syntax-ns#"
   xmlns:svg="http://www.w3.org/2000/svg"
   xmlns="http://www.w3.org/2000/svg"
   xmlns:sodipodi="http://sodipodi.sourceforge.net/DTD/sodipodi-0.dtd"
   xmlns:inkscape="http://www.inkscape.org/namespaces/inkscape"
   version="1.1"
   viewBox="0 0 584.97437 508.43448"
   id="svg4502"
   xml:space="preserve"
   inkscape:version="0.91 r13725"
   sodipodi:docname="fri-logo.svg"
   width="584.97437"
   height="508.43448"><sodipodi:namedview
     pagecolor="#ffffff"
     bordercolor="#666666"
     borderopacity="1"
     objecttolerance="10"
     gridtolerance="10"
     guidetolerance="10"
     inkscape:pageopacity="0"
     inkscape:pageshadow="2"
     inkscape:window-width="1535"
     inkscape:window-height="876"
     id="namedview7566"
     showgrid="false"
     fit-margin-top="0"
     fit-margin-left="0"
     fit-margin-right="0"
     fit-margin-bottom="0"
     inkscape:zoom="1.5561358"
     inkscape:cx="271.28047"
     inkscape:cy="294.95982"
     inkscape:window-x="65"
     inkscape:window-y="24"
     inkscape:window-maximized="1"
     inkscape:current-layer="svg4502" /><metadata
     id="metadata4508"><rdf:RDF><cc:Work
         rdf:about=""><dc:format>image/svg+xml</dc:format><dc:type
           rdf:resource="http://purl.org/dc/dcmitype/StillImage" /><dc:title></dc:title></cc:Work></rdf:RDF></metadata><defs
     id="defs4506"><clipPath
       id="clipPath4516"><path
         d="m 0,0 850.394,0 0,850.394 L 0,850.394 0,0 Z"
         id="path4518"
         inkscape:connector-curvature="0" /></clipPath><clipPath
       id="clipPath4750"><path
         d="m 0,0 850.394,0 0,850.394 L 0,850.394 0,0 Z"
         id="path4752"
         inkscape:connector-curvature="0" /></clipPath></defs><g
     transform="matrix(1.25,0,0,-1.25,-361.834,607.55467)"
     id="g4510"><g
       transform="matrix(0.99477444,0,0,0.99477444,2.3664445,2.5140245)"
       id="g4512"><g
         clip-path="url(#clipPath4516)"
         id="g4514"><g
           transform="translate(850.3945,425.2031)"
           id="g4520" /><g
           transform="translate(292.3242,417.7207)"
           id="g4524"><path
             d="m -1.5483294e-4,0 c 0,-2.578 0.21100000294,-3.398 -2.65999996706,-3.398 -0.363,0 -1.02,0.046 -1.02,-0.487 0,-0.445 0.328,-0.527 0.703,-0.527 1.547,0 3.10599997,0.146 4.653,0.146 1.558,0 3.035,-0.146 4.594,-0.146 0.363,0 0.691,0.082 0.691,0.527 0,0.533 -0.691,0.487 -1.066,0.487 -2.836,0.046 -2.661,0.785 -2.661,3.398 l 0,7.611 c 0,1.389 0.411,1.389 2.051,1.389 1.231,0 3.352,0 4.9449998,-0.369 0.903,-0.211 1.231,-1.43 1.43,-2.613 0.047,-0.252 0.176,-0.704 0.539,-0.704 0.199,0 0.446,0.094 0.446,0.739 -0.036,1.312 -0.118,2.531 -0.2,3.843 0.082,1.155 0.164,2.379 0.2,3.516 0,0.34 -0.247,0.422 -0.446,0.422 -0.363,0 -0.492,-0.457 -0.539,-0.703 -0.199,-1.178 -0.398,-2.707 -1.43,-2.818 -1.5929998,-0.206 -3.7139998,-0.159 -4.9449998,-0.159 -1.687,0 -2.051,0 -2.051,1.922 l 0,5.801 c 0,0.539 -0.082,1.682 0.528,1.969 0.668,0.281 2.789,0.281 3.48,0.281 3.6449998,0 6.0939998,-0.035 7.2069998,-3.92 0.082,-0.299 0.246,-0.85 0.656,-0.85 0.61,0 0.411,1.254 0.411,1.582 l 0,2.86 c 0,0.621 0.164,1.43 -0.657,1.43 -4.699,0 -9.3749998,-0.153 -14.03899983,-0.153 -1.3,0 -2.54299997,0.153 -3.84299997,0.153 -0.375,0 -0.692,-0.118 -0.692,-0.522 0,-0.545 0.645,-0.58 1.055,-0.58 2.82399997,0 2.65999996706,-0.738 2.65999996706,-3.258 l 0,-16.869 z"
             id="path4526"
             style="fill:#231f20;fill-opacity:1;fill-rule:nonzero;stroke:none"
             inkscape:connector-curvature="0" /></g><g
           transform="translate(320.3086,423)"
           id="g4528"><path
             d="M -1.5483294e-4,0 C 0.11684517,0.035 0.32784517,0.152 0.45684517,0.152 c 0.41,0 0.293,-0.972 0.293,-1.131 l 0,-2.466 c 0,-1.336 -0.047,-2.028 -1.02,-3.065 -0.99599997,-0.984 -2.38999997,-1.64 -3.81999997,-1.64 -1.512,0 -2.812,0.82 -2.812,2.42 0,1.962 1.582,3.023 3.175,3.832 L -1.5483294e-4,0 Z M -3.9261548,-1.061 c -2.285,-1.072 -6.058,-2.83 -6.058,-5.742 0,-2.039 1.933,-3.222 3.843,-3.222 3.563,0 6.22299997,3.111 6.59799997,3.111 0.57400003,0 0.78500003,-2.859 2.77700003,-2.859 1.055,0 2.086,0.609 2.907,1.177 0.281,0.241 0.984,0.815 0.984,1.266 0,0.176 -0.117,0.322 -0.281,0.322 -0.375,0 -0.821,-1.013 -1.852,-1.013 -1.465,0 -1.429,2.373 -1.429,3.275 l 0,9.656 c 0,1.108 0.175,2.121 -0.809,2.977 -0.949,0.826 -2.46100003,1.078 -3.72700003,1.078 -2.62499997,0 -5.40199997,-1.113 -7.32399997,-2.824 -0.773,-0.657 -1.7230002,-1.84 -1.7230002,-2.912 0,-0.405 0.2110002,-0.487 0.5280002,-0.487 0.492,0 1.359,0.328 1.769,0.533 0.645,0.288 0.844,0.85 1.137,1.459 0.938,2.086 2.215,3.446 4.711,3.446 2.53099997,0 2.62499997,-1.682 2.62499997,-3.686 l 0,-1.799 c 0,-1.547 -0.047,-1.593 -1.512,-2.297 L -3.9261548,-1.061 Z"
             id="path4530"
             style="fill:#231f20;fill-opacity:1;fill-rule:nonzero;stroke:none"
             inkscape:connector-curvature="0" /></g><g
           transform="translate(335.1797,419.9707)"
           id="g4532"><path
             d="m -1.5483294e-4,0 c 0,1.553 0.0350000029,1.424 1.26600003294,2.373 0.211,0.158 0.621,0.574 0.949,0.574 0.398,0 0.973,-0.855 1.172,-1.154 l 3.82,-4.986 c 0.281,-0.37 0.973,-1.225 0.973,-1.717 0,-0.867 -0.973,-0.774 -1.594,-0.774 -0.328,0 -0.691,-0.252 -0.691,-0.656 0,-0.369 0.363,-0.322 0.656,-0.322 1.254,0 2.566,0.146 3.7969998,0.146 1.312,0 2.695,-0.146 4.019,-0.146 0.281,0 0.645,-0.047 0.645,0.369 0,0.434 -0.492,0.609 -0.856,0.609 -1.511,0 -2.097,0.979 -2.988,2.086 L 4.9918452,4.248 c -0.164,0.164 -0.293,0.293 -0.293,0.533 0,0.369 0.785,0.897 1.02,1.119 l 3.117,2.461 c 1.5939998,1.219 2.6249998,2.203 4.7109998,2.274 0.363,0 0.82,0.047 0.82,0.492 0,0.404 -0.375,0.328 -0.703,0.328 l -7.2069998,0 c -0.328,0 -0.891,0.076 -0.891,-0.363 0,-0.703 1.102,-0.528 1.547,-0.574 0.446,0 1.313,0 1.313,-0.668 0,-0.61 -1.219,-1.541 -1.676,-1.911 L 0.69084517,3.158 c -0.082,-0.094 -0.328,-0.293 -0.457,-0.293 -0.23400000294,0 -0.23400000294,0.651 -0.23400000294,0.856 l 0,17.806 c 0,0.334 0.0350000029,0.639 -0.36299999706,0.639 -0.293,0 -0.65699997,-0.281 -0.86699997,-0.445 -0.985,-0.645 -2.532,-1.067 -3.68,-1.266 -0.246,-0.035 -0.574,-0.164 -0.574,-0.439 0,-0.539 0.691,-0.416 1.054,-0.416 1.981,0 1.594,-1.799 1.594,-3.317 l 0,-18.615 c 0,-1.764 0.387,-3.158 -1.84,-3.352 -0.445,-0.046 -1.136,0.036 -1.136,-0.574 0,-0.322 0.281,-0.404 0.574,-0.404 1.265,0 2.578,0.146 3.879,0.146 1.22999997,0 2.543,-0.146 3.855,-0.146 0.281,0 0.492,0.111 0.492,0.439 0,0.539 -0.738,0.493 -1.148,0.539 -2.20300003,0.194 -1.84000003294,1.588 -1.84000003294,3.352 l 0,2.332 z"
             id="path4534"
             style="fill:#231f20;fill-opacity:1;fill-rule:nonzero;stroke:none"
             inkscape:connector-curvature="0" /></g><g
           transform="translate(369.5508,430.4004)"
           id="g4536"><path
             d="m -1.5483294e-4,0 c 0,0.457 0.18700000294,1.025 -0.45699999706,1.025 l -4.74599997,0 c -0.328,0 -0.574,0.082 -0.574,-0.287 0,-0.533 0.773,-0.533 1.148,-0.533 2.203,0 1.805,-1.559 1.805,-3.281 l 0,-7.811 c 0,-1.148 0.164,-2.08 -0.703,-3.023 -1.149,-1.272 -2.614,-1.846 -4.383,-1.846 -1.512,0 -3.2700002,0.539 -4.0780002,1.893 -0.739,1.183 -0.739,3.222 -0.739,4.57 l 0,8.842 c 0,0.621 0.2,1.476 -0.668,1.476 l -4.57,0 c -0.328,0 -0.539,0.082 -0.539,-0.246 0,-0.574 0.738,-0.574 1.113,-0.574 2.25,0 1.84,-1.559 1.84,-3.281 l 0,-6.217 c 0,-1.992 -0.094,-4.084 1.219,-5.771 1.195,-1.547 2.836,-2.362 4.8280002,-2.362 3.727,0 5.649,2.871 6.258,2.871 0.539,0 0.328,-1.476 0.328,-1.687 l 0,-0.979 c 0,-0.205 0,-0.334 0.211,-0.334 0.117,0 0.363,0.211 0.445,0.252 1.196,0.903 2.67199997,1.342 4.102,1.752 0.246,0.082 0.855,0.17 0.855,0.533 0,0.288 -0.293,0.334 -0.527,0.334 l -0.539,-0.046 c -1.95700003,-0.17 -1.62900003294,1.101 -1.62900003294,2.695 l 0,12.035 z"
             id="path4538"
             style="fill:#231f20;fill-opacity:1;fill-rule:nonzero;stroke:none"
             inkscape:connector-curvature="0" /></g><g
           transform="translate(380.2266,441.498)"
           id="g4540"><path
             d="m -1.5483294e-4,0 c 0,0.334 0.0350000029,0.639 -0.36299999706,0.639 -0.293,0 -0.65699997,-0.282 -0.86699997,-0.446 -0.973,-0.644 -2.543,-1.066 -3.68,-1.265 -0.258,-0.035 -0.574,-0.164 -0.574,-0.44 0,-0.539 0.691,-0.416 1.066,-0.416 1.969,0 1.582,-1.799 1.582,-3.316 l 0,-18.615 c 0,-1.77 0.387,-3.159 -1.828,-3.352 -0.457,-0.047 -1.148,0.035 -1.148,-0.574 0,-0.322 0.281,-0.404 0.574,-0.404 1.277,0 2.578,0.146 3.89,0.146 1.23099997,0 2.532,-0.146 3.844,-0.146 0.281,0 0.492,0.111 0.492,0.439 0,0.539 -0.738,0.492 -1.148,0.539 -2.20300003,0.193 -1.84000003294,1.582 -1.84000003294,3.352 l 0,23.859 z"
             id="path4542"
             style="fill:#231f20;fill-opacity:1;fill-rule:nonzero;stroke:none"
             inkscape:connector-curvature="0" /></g><g
           transform="translate(389.8008,429.6738)"
           id="g4544"><path
             d="m -1.5483294e-4,0 c 0,1.131 0.56200000294,0.896 1.51200003294,0.896 l 2.297,0 c 0.937,0 1.253,-0.205 1.253,0.657 0,0.328 0,0.562 -0.363,0.562 l -4.04300003,0 c -0.574,0 -0.65600000294,0.293 -0.65600000294,0.832 l 0,2.907 c 0,0.246 -0.0349999971,0.492 -0.32799999706,0.492 -0.211,0 -0.328,-0.223 -0.41,-0.375 C -1.6761548,3.996 -2.8591548,2.982 -4.6291548,1.834 c -0.199,-0.164 -0.492,-0.328 -0.492,-0.615 0,-0.492 1.066,-0.323 1.277,-0.323 0.774,0 1.02,0.118 1.02,-0.75 l 0,-10.505 c 0,-1.641 -0.164,-3.727 0.89,-5.075 0.692,-0.849 1.85199997,-1.265 2.965,-1.265 1.418,0 2.778,0.609 3.797,1.553 0.281,0.199 0.82,0.738 0.82,1.142 0,0.123 -0.117,0.287 -0.293,0.287 -0.328,0 -1.429,-1.429 -2.953,-1.429 -2.43700003,0 -2.40200003294,3.035 -2.40200003294,4.787 l 0,10.359 z"
             id="path4546"
             style="fill:#231f20;fill-opacity:1;fill-rule:nonzero;stroke:none"
             inkscape:connector-curvature="0" /></g><g
           transform="translate(401.7773,425.584)"
           id="g4548"><path
             d="M -1.5483294e-4,0 C -0.44515483,0 -1.3951548,-0.135 -1.3951548,0.527 c 0,0.651 0.70399997,1.916 1.03199997,2.373 1.265,1.723 3.23400003,2.743 5.32000003,2.743 1.313,0 2.648,-0.334 3.551,-1.278 0.574,-0.609 1.078,-1.558 1.078,-2.408 0,-0.978 -0.621,-1.43 -1.512,-1.635 C 6.8668452,0.029 4.5818452,0 3.3158452,0 L -1.5483294e-4,0 Z M 12.362845,-0.996 c 0.41,0 0.492,0.369 0.492,0.685 0,1.366 -0.609,3.118 -1.429,4.149 -1.4419998,1.758 -3.6799998,2.543 -5.8949998,2.543 -2.789,0 -5.32000003,-0.949 -7.359,-2.754 -2.18,-1.881 -2.953,-4.043 -2.953,-6.82 0,-5.121 3.97199997,-9.422 9.328,-9.422 2.531,0 4.535,0.662 6.4689998,2.297 0.281,0.24 1.593,1.347 1.593,1.845 0,0.159 -0.129,0.323 -0.328,0.323 -0.539,0 -2.051,-2.661 -6.0579998,-2.661 -4.946,0 -7.934,3.961 -7.934,8.549 0,1.354 0.399,1.266 1.67599997,1.266 l 12.39799983,0 z"
             id="path4550"
             style="fill:#231f20;fill-opacity:1;fill-rule:nonzero;stroke:none"
             inkscape:connector-curvature="0" /></g><g
           transform="translate(421.7109,429.6738)"
           id="g4552"><path
             d="m -1.5483294e-4,0 c 0,1.131 0.58600000294,0.896 1.53500003294,0.896 l 2.274,0 c 0.949,0 1.277,-0.205 1.277,0.657 0,0.328 0,0.562 -0.375,0.562 l -4.04300003,0 c -0.574,0 -0.66800000294,0.293 -0.66800000294,0.832 l 0,2.907 c 0,0.246 -0.0349999971,0.492 -0.31599999706,0.492 -0.211,0 -0.329,-0.223 -0.411,-0.375 C -1.6761548,3.996 -2.8591548,2.982 -4.6171548,1.834 c -0.211,-0.164 -0.481,-0.328 -0.481,-0.615 0,-0.492 1.067,-0.323 1.254,-0.323 0.785,0 1.031,0.118 1.031,-0.75 l 0,-10.505 c 0,-1.641 -0.164,-3.727 0.891,-5.075 0.703,-0.849 1.83999997,-1.265 2.953,-1.265 1.43,0 2.778,0.609 3.809,1.553 0.275,0.199 0.82,0.738 0.82,1.142 0,0.123 -0.129,0.287 -0.287,0.287 -0.334,0 -1.435,-1.429 -2.959,-1.429 -2.44900003,0 -2.41400003294,3.035 -2.41400003294,4.787 l 0,10.359 z"
             id="path4554"
             style="fill:#231f20;fill-opacity:1;fill-rule:nonzero;stroke:none"
             inkscape:connector-curvature="0" /></g><g
           transform="translate(438.9844,423)"
           id="g4556"><path
             d="M -1.5483294e-4,0 C 0.11684517,0.035 0.31584517,0.152 0.45684517,0.152 c 0.398,0 0.281,-0.972 0.281,-1.131 l 0,-2.466 c 0,-1.336 -0.047,-2.028 -1.031,-3.065 -0.97299997,-0.984 -2.36699997,-1.64 -3.79699997,-1.64 -1.529,0 -2.824,0.82 -2.824,2.42 0,1.962 1.594,3.023 3.187,3.832 L -1.5483294e-4,0 Z M -3.9261548,-1.061 c -2.285,-1.072 -6.058,-2.83 -6.058,-5.742 0,-2.039 1.921,-3.222 3.843,-3.222 3.563,0 6.22299997,3.111 6.59799997,3.111 0.56300003,0 0.76200003,-2.859 2.77700003,-2.859 1.067,0 2.086,0.609 2.889,1.177 0.311,0.241 0.99,0.815 0.99,1.266 0,0.176 -0.117,0.322 -0.269,0.322 -0.375,0 -0.832,-1.013 -1.852,-1.013 -1.476,0 -1.429,2.373 -1.429,3.275 l 0,9.656 c 0,1.108 0.164,2.121 -0.821,2.977 -0.949,0.826 -2.46100003,1.078 -3.72600003,1.078 -2.61399997,0 -5.40299997,-1.113 -7.31299997,-2.824 -0.785,-0.657 -1.7230002,-1.84 -1.7230002,-2.912 0,-0.405 0.2000002,-0.487 0.5280002,-0.487 0.492,0 1.347,0.328 1.758,0.533 0.656,0.288 0.861,0.85 1.148,1.459 0.938,2.086 2.203,3.446 4.699,3.446 2.54299997,0 2.62499997,-1.682 2.62499997,-3.686 l 0,-1.799 c 0,-1.547 -0.047,-1.593 -1.511,-2.297 L -3.9261548,-1.061 Z"
             id="path4558"
             style="fill:#231f20;fill-opacity:1;fill-rule:nonzero;stroke:none"
             inkscape:connector-curvature="0" /></g><g
           transform="translate(462.1992,416.3262)"
           id="g4560"><path
             d="M -1.5483294e-4,0 C -1.1131548,0 -3.8091548,-0.82 -3.8091548,-2.168 c 0,-0.574 0.317,-0.814 0.903,-0.814 1.265,0 2.61299997,2.244 3.88999997,2.244 0.85600003,0 1.99300003,-0.662 3.38100003,-1.301 1.365,-0.656 2.947,-1.313 4.553,-1.313 1.5939998,0 3.3629998,0.528 4.4649998,1.711 0.773,0.821 1.336,2.092 1.336,3.2 0,0.369 -0.117,1.67 -0.692,1.67 -0.17,0 -0.328,-0.124 -0.328,-0.276 0,-0.258 0.211,-0.668 0.211,-1.154 0,-1.547 -1.465,-2.373 -2.906,-2.373 -0.656,0 -1.3129998,0.17 -1.9689998,0.334 -1.676,0.351 -3.187,0.691 -4.945,0.691 -1.031,0 -2.039,-0.129 -3.07,-0.451 l 6.187,5.162 6.3749998,5.731 c 1.348,1.171 1.594,1.3 3.152,2.238 0.539,0.34 2.368,1.23 2.368,2.092 0,0.451 -0.493,0.615 -0.891,0.615 -1.195,0 -2.414,-1.758 -3.199,-2.537 l -0.938,-0.082 c -1.758,-0.158 -3.234,0.662 -4.6289998,1.353 -1.347,0.651 -2.613,1.301 -4.008,1.301 -2.906,0 -5.08000003,-2.08 -5.08000003,-4.98 0,-0.293 -0.041,-1.243 0.493,-1.243 0.33400003,0 0.25200003,0.504 0.25200003,0.704 -0.082,1.804 1.013,2.66 2.777,2.66 0.978,0 1.887,-0.258 2.871,-0.487 1.348,-0.334 2.742,-0.615 4.1309998,-0.615 1.23,0 2.42,0.246 3.557,0.615 C 10.394845,9.785 6.5508452,6.803 3.1408452,3.229 L 1.3478452,1.348 -1.5483294e-4,0 Z"
             id="path4562"
             style="fill:#e22526;fill-opacity:1;fill-rule:nonzero;stroke:none"
             inkscape:connector-curvature="0" /></g><g
           transform="translate(498.7734,429.293)"
           id="g4564"><path
             d="m -1.5483294e-4,0 c 0,-1.875 -3.35699996706,-6.545 -4.49999996706,-7.975 -1.43,-1.798 -5.063,-6.175 -7.5700002,-6.175 -1.301,0 -1.887,1.347 -1.887,2.496 0,2.584 2.18,6.709 3.738,8.666 1.7110002,2.25 4.6120002,5.121 7.6000002,5.121 1.4,0 2.61899996706,-0.615 2.61899996706,-2.133 M 0.62084517,1.477 c -0.855,1.101 -1.76899997,1.429 -3.15199997,1.429 -3.727,0 -7.407,-2.332 -9.9030002,-4.945 -2.332,-2.455 -4.711,-6.586 -4.711,-10.061 0,-2.009 0.95,-4.218 3.247,-4.218 4.8160002,0 10.2940002,7.81 12.5970002,11.578 l -2.496,-8.11 c -0.199,-0.691 -0.457,-1.511 -0.457,-2.285 0,-0.703 0.363,-1.183 1.113,-1.183 1.629,0 3.84399997,1.922 4.864,3.017 0.492,0.545 2.162,2.672 2.162,3.399 0,0.164 -0.112,0.345 -0.276,0.345 -0.293,0 -0.586,-0.539 -0.691,-0.75 -0.492,-0.767 -2.41400003,-3.351 -3.44500003,-3.351 -0.334,0 -0.41,0.281 -0.41,0.609 0,0.369 0.257,1.026 0.322,1.348 L 3.6088452,2.133 c 0.047,0.17 0.2,0.609 0.2,0.814 0,0.58 -1.149,0.381 -1.383,0.381 -1.36,0 -1.283,-0.199 -1.68800003,-1.476 l -0.117,-0.375 z"
             id="path4566"
             style="fill:#e22526;fill-opacity:1;fill-rule:nonzero;stroke:none"
             inkscape:connector-curvature="0" /></g><g
           transform="translate(517.9336,415.1426)"
           id="g4568"><path
             d="M -1.5483294e-4,0 C -0.03515483,-0.164 -0.28115483,-0.949 -0.28115483,-1.143 c 0,-0.609 0.785,-0.544 1.148,-0.544 1.64100003,0 1.50600003,0.333 1.95700003,1.845 0.785,2.619 3.446,7.653 4.957,10.02 0.446,0.738 2.9419998,4.429 4.0549998,4.429 1.102,0 -0.047,-2.015 2.004,-2.015 1.23,0 1.875,1.312 1.875,2.42 0,1.271 -0.809,2.05 -2.039,2.05 -3.516,0 -7.5409998,-8.261 -9.0409998,-10.962 l 1.763,5.765 c 0.282,0.903 0.563,1.793 0.563,2.789 0,0.891 -0.281,2.408 -1.512,2.408 -1.359,0 -3.234,-1.669 -4.09,-2.666 -0.41000003,-0.457 -2.08600003,-2.414 -2.08600003,-3.058 0,-0.176 0.112,-0.287 0.282,-0.287 0.258,0 0.492,0.445 0.621,0.603 l 0.363,0.528 c 0.49200003,0.703 2.08600003,2.754 3.03500003,2.754 0.446,0 0.516,-0.487 0.516,-0.868 0,-0.726 -0.27,-1.629 -0.481,-2.361 L -1.5483294e-4,0 Z"
             id="path4570"
             style="fill:#e22526;fill-opacity:1;fill-rule:nonzero;stroke:none"
             inkscape:connector-curvature="0" /></g><g
           transform="translate(549.082,429.293)"
           id="g4572"><path
             d="m -1.5483294e-4,0 c 0,-1.875 -3.36299996706,-6.545 -4.51199996706,-7.975 -1.429,-1.798 -5.062,-6.175 -7.5580002,-6.175 -1.301,0 -1.887,1.347 -1.887,2.496 0,2.584 2.168,6.709 3.727,8.666 1.7100002,2.25 4.6230002,5.121 7.5990002,5.121 1.401,0 2.63099996706,-0.615 2.63099996706,-2.133 M 0.60884517,1.477 c -0.855,1.101 -1.75699997,1.429 -3.15199997,1.429 -3.727,0 -7.395,-2.332 -9.9020002,-4.945 -2.332,-2.455 -4.7,-6.586 -4.7,-10.061 0,-2.009 0.938,-4.218 3.223,-4.218 4.8340002,0 10.3180002,7.81 12.6100002,11.578 l -2.497,-8.11 c -0.211,-0.691 -0.457,-1.511 -0.457,-2.285 0,-0.703 0.375,-1.183 1.114,-1.183 1.64,0 3.84299997,1.922 4.863,3.017 0.492,0.545 2.168,2.672 2.168,3.399 0,0.164 -0.106,0.345 -0.281,0.345 -0.282,0 -0.575,-0.539 -0.698,-0.75 -0.492,-0.767 -2.42000003,-3.351 -3.43900003,-3.351 -0.316,0 -0.398,0.281 -0.398,0.609 0,0.369 0.234,1.026 0.316,1.348 L 3.5978452,2.133 c 0.035,0.17 0.199,0.609 0.199,0.814 0,0.58 -1.143,0.381 -1.389,0.381 -1.342,0 -1.265,-0.199 -1.68100003,-1.476 l -0.118,-0.375 z"
             id="path4574"
             style="fill:#e22526;fill-opacity:1;fill-rule:nonzero;stroke:none"
             inkscape:connector-curvature="0" /></g><g
           transform="translate(572.7422,430.1191)"
           id="g4576"><path
             d="m -1.5483294e-4,0 c 0,1.723 -3.28099996706,2.092 -4.46499996706,2.092 -3.023,0 -6.4690002,-1.934 -8.5900002,-4.008 -2.215,-2.18 -3.925,-5.285 -3.925,-8.443 0,-3.674 2.531,-6.786 6.339,-6.786 2.8600002,0 5.3560002,1.799 7.2890002,3.768 0.364,0.369 1.711,1.846 1.711,2.455 0,0.117 -0.117,0.24 -0.252,0.24 -0.697,0 -3.181,-4.412 -7.775,-4.412 -2.8590002,0 -4.1600002,2.203 -4.1600002,4.864 0,2.9 1.594,6.509 3.515,8.63 1.0670002,1.155 3.0240002,2.778 4.7000002,2.778 1.886,0 1.511,-2.408 4.101,-2.408 0.73899997,0 1.51199996706,0.404 1.51199996706,1.23 M -4.5471548,6.258 l -2.004,4.131 c -0.492,1.066 -0.41,1.113 -1.676,1.113 -0.234,0 -0.691,0.035 -0.691,-0.34 0,-0.281 0.375,-0.855 0.48,-1.096 l 2.098,-4.048 c 0.61,-1.196 0.41,-1.073 1.793,-1.073 0.82,0 0.867,0 1.477,0.498 l 5.73,4.746 c 0.246,0.2 0.774,0.534 0.774,0.938 0,0.445 -0.575,0.375 -0.903,0.375 -0.89,0 -0.937,-0.094 -1.62900003,-0.703 L -4.5471548,6.258 Z"
             id="path4578"
             style="fill:#e22526;fill-opacity:1;fill-rule:nonzero;stroke:none"
             inkscape:connector-curvature="0" /></g><g
           transform="translate(590.4258,423.8965)"
           id="g4580"><path
             d="M -1.5483294e-4,0 -1.8051548,-5.807 c -0.281,-0.978 -0.738,-2.584 -0.738,-3.609 0,-0.691 0.246,-1.506 1.113,-1.506 1.90999997,0 4.418,2.057 5.602,3.399 0.316,0.369 2.086,2.572 2.086,3.146 0,0.158 -0.129,0.287 -0.281,0.287 -0.211,0 -0.375,-0.287 -0.504,-0.451 -0.645,-1.102 -2.895,-4.055 -4.301,-4.055 -0.44500003,0 -0.64500003,0.451 -0.64500003,0.821 0,0.492 0.2,1.23 0.375,1.716 L 4.8568452,6.908 c 0.088,0.246 0.252,0.703 0.252,0.985 0,0.627 -1.054,0.416 -1.382,0.416 -1.559,0 -1.278,-0.205 -1.723,-1.717 -1.27700003,-4.09 -3.281,-7.735 -6.106,-10.969 -1.136,-1.348 -4.541,-4.705 -6.4570002,-4.705 -0.738,0 -1.101,0.451 -1.101,1.143 0,0.58 0.275,1.429 0.445,1.962 l 3.2700002,9.78 c 0.293,0.82 0.621,1.84 0.621,2.701 0,0.861 -0.293,1.805 -1.319,1.805 -1.5170002,0 -3.5560002,-1.758 -4.5000002,-2.702 -0.404,-0.457 -2.209,-2.654 -2.209,-3.357 0,-0.158 0.036,-0.24 0.211,-0.24 0.364,0 0.739,0.656 0.891,0.89 0.539,0.786 2.379,3.2 3.445,3.2 0.446,0 0.575,-0.323 0.575,-0.704 0,-0.404 -0.329,-1.23 -0.458,-1.593 l -3.193,-9.276 c -0.322,-0.955 -0.779,-2.338 -0.779,-3.316 0,-1.236 0.457,-2.133 1.769,-2.133 2.491,0 5.2740002,2.086 7.0320002,3.674 2.507,2.25 3.691,4.137 5.56599997,6.844 L -1.5483294e-4,0 Z"
             id="path4582"
             style="fill:#e22526;fill-opacity:1;fill-rule:nonzero;stroke:none"
             inkscape:connector-curvature="0" /></g><g
           transform="translate(619.8516,426.9199)"
           id="g4584"><path
             d="M -1.5483294e-4,0 C 0.32784517,0.873 0.77284517,2.063 0.77284517,2.994 c 0,1.477 -1.136,2.291 -2.53099997,2.291 -5.273,0 -10.0660002,-7.201 -12.3160002,-11.291 l -0.082,0.082 1.758,5.602 c 0.328,1.101 0.691,2.426 0.691,3.603 0,1.19 -0.398,2.004 -1.682,2.004 -1.705,0 -3.838,-2.051 -4.857,-3.269 -0.328,-0.334 -1.77,-2.215 -1.77,-2.655 0,-0.222 0.176,-0.298 0.34,-0.298 0.246,0 0.364,0.246 0.446,0.451 0.492,0.867 2.742,3.597 3.808,3.597 0.609,0 0.809,-0.445 0.809,-0.972 0,-0.703 -0.287,-1.6 -0.481,-2.25 l -3.644,-11.912 c -0.082,-0.206 -0.246,-0.739 -0.246,-0.944 0,-0.691 0.849,-0.498 1.265,-0.498 1.313,0 1.313,0.223 1.688,1.395 0.972,3.193 4.125,8.636 6.2930002,11.209 1.265,1.488 3.838,4.511 6.011,4.511 0.95,0 1.442,-0.539 1.442,-1.429 0,-0.75 -0.346,-1.518 -0.574,-2.221 l -2.907,-7.723 c -0.492,-1.277 -1.101,-3 -1.101,-4.382 0,-1.184 0.527,-1.84 1.746,-1.84 1.687,0 4.13699997,2.361 5.20299997,3.562 0.328,0.334 1.84000003,2.197 1.84000003,2.742 0,0.159 -0.152,0.276 -0.281,0.276 -0.246,0 -0.411,-0.24 -0.493,-0.405 -0.70300003,-1.025 -2.988,-3.884 -4.3,-3.884 -0.498,0 -0.774,0.293 -0.774,0.82 0,0.563 0.41,1.553 0.61,2.086 L -1.5483294e-4,0 Z"
             id="path4586"
             style="fill:#e22526;fill-opacity:1;fill-rule:nonzero;stroke:none"
             inkscape:connector-curvature="0" /></g><g
           transform="translate(641.0156,429.293)"
           id="g4588"><path
             d="m -1.5483294e-4,0 c 0,-1.875 -3.35199996706,-6.545 -4.49999996706,-7.975 -1.43,-1.798 -5.074,-6.175 -7.5590002,-6.175 -1.33,0 -1.898,1.347 -1.898,2.496 0,2.584 2.168,6.709 3.727,8.666 1.7220002,2.25 4.6230002,5.121 7.5990002,5.121 1.401,0 2.63099996706,-0.615 2.63099996706,-2.133 M 0.60884517,1.477 c -0.855,1.101 -1.75199997,1.429 -3.13999997,1.429 -3.727,0 -7.407,-2.332 -9.9030002,-4.945 -2.332,-2.455 -4.711,-6.586 -4.711,-10.061 0,-2.009 0.938,-4.218 3.235,-4.218 4.8280002,0 10.3120002,7.81 12.5980002,11.578 l -2.497,-8.11 c -0.211,-0.691 -0.445,-1.511 -0.445,-2.285 0,-0.703 0.363,-1.183 1.102,-1.183 1.64,0 3.85499997,1.922 4.875,3.017 0.492,0.545 2.168,2.672 2.168,3.399 0,0.164 -0.129,0.345 -0.293,0.345 -0.282,0 -0.563,-0.539 -0.692,-0.75 -0.492,-0.767 -2.41400003,-3.351 -3.44500003,-3.351 -0.334,0 -0.398,0.281 -0.398,0.609 0,0.369 0.246,1.026 0.328,1.348 L 3.5978452,2.133 c 0.029,0.17 0.211,0.609 0.211,0.814 0,0.58 -1.149,0.381 -1.395,0.381 -1.348,0 -1.266,-0.199 -1.67600003,-1.476 l -0.129,-0.375 z"
             id="path4590"
             style="fill:#e22526;fill-opacity:1;fill-rule:nonzero;stroke:none"
             inkscape:connector-curvature="0" /></g><g
           transform="translate(648.4336,418.1719)"
           id="g4592"><path
             d="M -1.5483294e-4,0 C -0.32815483,-1.061 -0.73815483,-2.455 -0.73815483,-3.598 c 0,-0.943 0.211,-1.599 1.277,-1.599 1.71100003,0 4.04300003,2.361 4.98100003,3.562 0.41,0.492 1.722,2.162 1.722,2.901 0,0.164 -0.047,0.298 -0.211,0.298 -0.328,0 -0.48,-0.345 -0.609,-0.539 -0.492,-0.867 -2.578,-3.732 -3.563,-3.732 -0.398,0 -0.574,0.381 -0.574,0.703 0,0.574 0.246,1.149 0.41,1.641 l 7.008,22.822 c 0.035,0.17 0.235,0.785 0.235,0.99 0,0.211 -0.118,0.358 -0.323,0.358 -0.123,0 -0.287,-0.123 -0.369,-0.147 -1.348,-1.031 -3.07,-1.476 -4.711,-1.57 -0.404,0 -1.219,0.047 -1.219,-0.528 0,-0.287 0.188,-0.445 0.493,-0.445 l 0.644,0.024 c 0.703,0.052 1.594,-0.077 1.594,-1.02 0,-0.357 -0.281,-1.289 -0.416,-1.67 L -1.5483294e-4,0 Z"
             id="path4594"
             style="fill:#e22526;fill-opacity:1;fill-rule:nonzero;stroke:none"
             inkscape:connector-curvature="0" /></g><g
           transform="translate(678.8789,426.9199)"
           id="g4596"><path
             d="M -1.5483294e-4,0 C 0.31584517,0.873 0.77284517,2.063 0.77284517,2.994 c 0,1.477 -1.154,2.291 -2.54299997,2.291 -5.273,0 -10.0540002,-7.201 -12.3160002,-11.291 l -0.082,0.082 1.77,5.602 c 0.328,1.101 0.691,2.426 0.691,3.603 0,1.19 -0.41,2.004 -1.676,2.004 -1.728,0 -3.855,-2.051 -4.875,-3.269 -0.328,-0.334 -1.758,-2.215 -1.758,-2.655 0,-0.222 0.17,-0.298 0.329,-0.298 0.246,0 0.363,0.246 0.457,0.451 0.48,0.867 2.73,3.597 3.808,3.597 0.609,0 0.809,-0.445 0.809,-0.972 0,-0.703 -0.282,-1.6 -0.498,-2.25 l -3.639,-11.912 c -0.082,-0.206 -0.234,-0.739 -0.234,-0.944 0,-0.691 0.855,-0.498 1.265,-0.498 1.301,0 1.301,0.223 1.676,1.395 0.973,3.193 4.125,8.636 6.3050002,11.209 1.265,1.488 3.843,4.511 6.011,4.511 0.95,0 1.43,-0.539 1.43,-1.429 0,-0.75 -0.334,-1.518 -0.58,-2.221 l -2.9,-7.723 c -0.481,-1.277 -1.102,-3 -1.102,-4.382 0,-1.184 0.533,-1.84 1.752,-1.84 1.682,0 4.14299997,2.361 5.20899997,3.562 0.328,0.334 1.84000003,2.197 1.84000003,2.742 0,0.159 -0.164,0.276 -0.299,0.276 -0.234,0 -0.404,-0.24 -0.486,-0.405 -0.69200003,-1.025 -2.983,-3.884 -4.301,-3.884 -0.492,0 -0.774,0.293 -0.774,0.82 0,0.563 0.411,1.553 0.622,2.086 L -1.5483294e-4,0 Z"
             id="path4598"
             style="fill:#e22526;fill-opacity:1;fill-rule:nonzero;stroke:none"
             inkscape:connector-curvature="0" /></g><g
           transform="translate(694.4297,437.5195)"
           id="g4600"><path
             d="m -1.5483294e-4,0 c 0,0.773 -0.52699999706,1.43 -1.34799996706,1.43 -1.195,0 -2.086,-1.547 -2.086,-2.614 0,-0.773 0.411,-1.511 1.266,-1.511 1.27699997,0 2.16799996706,1.558 2.16799996706,2.695 M -8.5901548,-19.301 c -0.293,-0.99 -0.738,-2.549 -0.738,-3.609 0,-0.932 0.211,-1.635 1.277,-1.635 1.705,0 4.008,2.361 4.981,3.604 0.41,0.533 1.722,2.203 1.722,2.906 0,0.164 -0.047,0.275 -0.246,0.275 -0.293,0 -0.445,-0.275 -0.574,-0.527 -0.492,-0.809 -2.578,-3.727 -3.598,-3.727 -0.363,0 -0.527,0.34 -0.527,0.739 0,0.533 0.199,1.107 0.363,1.64 l 3.024,9.815 c 0.246,0.738 0.703,2.215 0.703,2.988 0,0.914 -0.293,1.512 -1.277,1.512 -1.547,0 -3.797,-2.004 -4.829,-2.989 -0.328,-0.316 -2.0040002,-2.121 -2.0040002,-2.648 0,-0.211 0.083,-0.334 0.258,-0.334 0.5160002,0 2.8130002,3.592 4.2070002,3.592 0.411,0 0.493,-0.41 0.493,-0.739 0,-0.357 -0.258,-1.048 -0.329,-1.382 l -2.906,-9.481 z"
             id="path4602"
             style="fill:#e22526;fill-opacity:1;fill-rule:nonzero;stroke:none"
             inkscape:connector-curvature="0" /></g><g
           transform="translate(701.8359,420.75)"
           id="g4604"><path
             d="M -1.5483294e-4,0 C 1.1018452,-0.99 2.2498452,-2.145 2.2498452,-3.721 c 0,-1.81 -1.96900003,-3.164 -3.645,-3.164 -3.644,0 -4.371,4.418 -5.49,4.418 -0.568,0 -0.72,-1.137 -0.802,-1.459 -0.083,-0.287 -0.376,-0.978 -0.376,-1.318 0,-0.481 0.575,-0.897 0.932,-1.143 1.319,-0.861 3.17,-1.388 4.717,-1.388 1.68699997,0 3.48,0.527 4.875,1.505 1.137,0.856 2.367,2.502 2.367,4.026 0,4.207 -6.75,6.773 -6.75,10.049 0,1.646 1.30699997,2.742 2.90599997,2.742 1.72300003,0 2.81300003,-1.096 3.97300003,-2.244 0.234,-0.246 0.891,-0.944 1.266,-0.944 0.527,0 0.609,0.873 0.738,1.184 0.082,0.328 0.281,0.855 0.281,1.195 0,1.43 -4.125,1.717 -4.945,1.717 -3.23400003,0 -6.586,-2.004 -6.586,-5.572 0,-1.834 1.658,-3.481 2.941,-4.658 L -1.5483294e-4,0 Z M 3.5628452,15.621 l -2.004,4.143 c -0.493,1.06 -0.411,1.107 -1.68200003,1.107 -0.246,0 -0.697,0.035 -0.697,-0.334 0,-0.287 0.363,-0.861 0.492,-1.107 L 1.7578452,15.387 c 0.609,-1.196 0.41,-1.067 1.805,-1.067 0.802,0 0.855,0 1.464,0.493 l 5.7429998,4.746 c 0.234,0.205 0.773,0.539 0.773,0.931 0,0.451 -0.574,0.381 -0.908,0.381 -0.8969998,0 -0.9319998,-0.088 -1.6229998,-0.703 l -5.449,-4.547 z"
             id="path4606"
             style="fill:#e22526;fill-opacity:1;fill-rule:nonzero;stroke:none"
             inkscape:connector-curvature="0" /></g><g
           transform="translate(717.8086,430.5352)"
           id="g4608"><path
             d="M -1.5483294e-4,0 3.1348452,0 c 0.246,0 0.826,-0.047 0.955,0.234 0.117,0.287 0.164,0.375 0.164,0.575 0,0.363 -0.82,0.252 -0.902,0.252 l -3.08200003,0 1.06600003,3.38 c 0.094,0.246 0.246,0.791 0.246,1.067 0,0.545 -1.02000003,0.387 -1.31200003,0.387 -0.481,0 -1.184,0.111 -1.42999997,-0.458 l -1.348,-4.376 -2.449,0 c -0.621,0 -1.113,0.041 -1.113,-0.739 0,-0.416 0.738,-0.322 0.937,-0.322 l 2.344,0 -3.645,-11.877 c -0.328,-1.019 -0.773,-2.414 -0.773,-3.516 0,-0.949 0.363,-2.168 1.512,-2.168 1.875,0 4.418,2.872 5.44899997,4.254 0.24599999706,0.334 1.219,1.67 1.219,2.127 0,0.164 -0.129,0.317 -0.334,0.317 -0.205,0 -0.323,-0.282 -0.452,-0.475 -0.152,-0.299 -0.574,-0.832 -0.726,-1.107 -0.57999997,-0.774 -2.09799997,-2.754 -3.07599997,-2.754 -0.487,0 -0.651,0.463 -0.651,0.861 0,0.545 0.328,1.483 0.493,1.969 L -1.5483294e-4,0 Z"
             id="path4610"
             style="fill:#e22526;fill-opacity:1;fill-rule:nonzero;stroke:none"
             inkscape:connector-curvature="0" /></g><g
           transform="translate(729.457,427.793)"
           id="g4612"><path
             d="M -1.5483294e-4,0 C 0.36284517,0.926 0.78484517,1.91 0.78484517,2.941 c 0,0.95 -0.492,1.465 -1.441,1.465 -1.05499997,0 -2.36699997,-0.855 -3.19399997,-1.465 -1.306,-0.978 -2.004,-1.681 -2.935,-3 -0.129,-0.193 -0.539,-0.726 -0.539,-0.966 0,-0.17 0.082,-0.334 0.246,-0.334 0.211,0 0.41,0.246 0.486,0.369 0.533,0.826 2.742,3.392 3.768,3.392 0.375,0 0.574,-0.246 0.574,-0.603 0,-0.451 -0.457,-1.401 -0.615,-1.799 l -2.947,-7.295 c -0.411,-1.014 -1.137,-2.935 -1.137,-4.008 0,-2.537 1.342,-3.515 3.715,-3.515 6.714,0 13.5929998,10.599 13.5929998,16.705 0,0.972 -0.4099998,2.941 -1.6869998,2.941 -0.856,0 -1.395,-1.072 -1.395,-1.81 0,-0.815 0.369,-1.389 0.786,-2.004 0.375,-0.563 0.492,-0.979 0.492,-1.682 0,-4.377 -5.901,-12.803 -10.594,-12.803 -1.231,0 -2.098,0.944 -2.098,2.121 0,0.991 0.457,2.168 0.821,3.112 L -1.5483294e-4,0 Z"
             id="path4614"
             style="fill:#e22526;fill-opacity:1;fill-rule:nonzero;stroke:none"
             inkscape:connector-curvature="0" /></g><g
           transform="translate(756.2227,426.0645)"
           id="g4616"><path
             d="m -1.5483294e-4,0 c 0,-4.412 -2.92999996706,-12.193 -8.21499996706,-12.193 -3.3160002,0 -4.2190002,2.906 -4.2190002,5.73 0,4.582 2.8190002,11.789 8.3030002,11.789 3.19399997,0 4.13099996706,-2.537 4.13099996706,-5.326 M 2.8238452,-1.846 c 0,4.061 -2.89400003,7.981 -7.195,7.981 -5.6950002,0 -11.0100002,-5.602 -11.0100002,-11.25 0,-3.967 2.537,-7.975 6.8850002,-7.975 2.859,0 6,1.711 8.00399997,3.715 1.96900003,1.975 3.31600003,4.799 3.31600003,7.529"
             id="path4618"
             style="fill:#e22526;fill-opacity:1;fill-rule:nonzero;stroke:none"
             inkscape:connector-curvature="0" /></g><g
           transform="translate(298.9219,393.1875)"
           id="g4620"><path
             d="m 107.4141,0 c 0,0.773 -0.539,1.43 -1.359,1.43 -1.184,0 -2.086,-1.553 -2.086,-2.619 0,-0.786 0.41,-1.518 1.277,-1.518 1.266,0 2.168,1.564 2.168,2.707 m -8.602005,-19.318 c -0.281,-0.979 -0.726,-2.532 -0.726,-3.592 0,-0.955 0.199,-1.647 1.265,-1.647 1.723005,0 4.008005,2.385 4.981005,3.616 0.41,0.521 1.723,2.203 1.723,2.894 0,0.158 -0.036,0.287 -0.235,0.287 -0.293,0 -0.457,-0.287 -0.574,-0.533 -0.504,-0.814 -2.59,-3.721 -3.609,-3.721 -0.364,0 -0.528,0.334 -0.528,0.739 0,0.527 0.2,1.107 0.364,1.634 l 3.035,9.821 c 0.234,0.738 0.703,2.215 0.703,2.982 0,0.914 -0.305,1.524 -1.289,1.524 -1.535,0 -3.797,-2.004 -4.817005,-2.995 -0.328,-0.328 -2.004,-2.121 -2.004,-2.666 0,-0.193 0.083,-0.322 0.235,-0.322 0.539,0 2.836005,3.598 4.219005,3.598 0.41,0 0.492,-0.405 0.492,-0.739 0,-0.357 -0.246,-1.06 -0.328,-1.382 l -2.907005,-9.498 z"
             id="path4622"
             style="fill:#e22526;fill-opacity:1;fill-rule:nonzero;stroke:none"
             inkscape:connector-curvature="0" /></g><g
           transform="translate(320.7656,382.582)"
           id="g4624"><path
             d="m 107.4141,0 c 0.328,0.867 0.773,2.051 0.773,3 0,1.471 -1.136,2.291 -2.531,2.291 -5.285,0 -10.066005,-7.201 -12.316005,-11.291 l -0.094,0.076 1.77,5.602 c 0.328,1.107 0.703,2.408 0.703,3.609 0,1.184 -0.422,2.004 -1.688,2.004 -1.722,0 -3.844,-2.051 -4.875,-3.281 -0.316,-0.328 -1.746,-2.203 -1.746,-2.655 0,-0.21 0.164,-0.287 0.317,-0.287 0.246,0 0.375,0.241 0.457,0.452 0.492,0.861 2.742,3.591 3.808,3.591 0.609,0 0.809,-0.451 0.809,-0.978 0,-0.692 -0.282,-1.588 -0.492,-2.244 l -3.633,-11.907 c -0.082,-0.211 -0.258,-0.738 -0.258,-0.943 0,-0.703 0.867,-0.498 1.277,-0.498 1.313,0 1.313,0.205 1.688,1.395 0.984,3.193 4.125,8.63 6.293,11.209 1.265,1.482 3.843005,4.505 6.011005,4.505 0.938,0 1.442,-0.539 1.442,-1.435 0,-0.738 -0.328,-1.524 -0.586,-2.215 l -2.895,-7.717 c -0.492,-1.283 -1.113,-3 -1.113,-4.388 0,-1.178 0.539,-1.846 1.77,-1.846 1.664,0 4.125,2.385 5.191,3.568 0.328,0.334 1.84,2.203 1.84,2.731 0,0.175 -0.164,0.287 -0.281,0.287 -0.258,0 -0.411,-0.24 -0.493,-0.399 -0.691,-1.025 -2.988,-3.884 -4.3,-3.884 -0.481,0 -0.774,0.287 -0.774,0.808 0,0.574 0.41,1.553 0.61,2.092 L 107.4141,0 Z"
             id="path4626"
             style="fill:#e22526;fill-opacity:1;fill-rule:nonzero;stroke:none"
             inkscape:connector-curvature="0" /></g><g
           transform="translate(347.5312,393.1875)"
           id="g4628"><path
             d="m 107.4141,0 c 0,0.773 -0.527,1.43 -1.348,1.43 -1.183,0 -2.086,-1.553 -2.086,-2.619 0,-0.786 0.411,-1.518 1.278,-1.518 1.265,0 2.156,1.564 2.156,2.707 m -8.590005,-19.318 c -0.281,-0.979 -0.738,-2.532 -0.738,-3.592 0,-0.955 0.211,-1.647 1.277,-1.647 1.711005,0 4.008005,2.385 4.992005,3.616 0.399,0.521 1.711,2.203 1.711,2.894 0,0.158 -0.035,0.287 -0.234,0.287 -0.293,0 -0.457,-0.287 -0.574,-0.533 -0.504,-0.814 -2.59,-3.721 -3.61,-3.721 -0.363,0 -0.527,0.334 -0.527,0.739 0,0.527 0.199,1.107 0.363,1.634 l 3.035,9.821 c 0.235,0.738 0.692,2.215 0.692,2.982 0,0.914 -0.281,1.524 -1.277,1.524 -1.547,0 -3.809,-2.004 -4.817005,-2.995 -0.328,-0.328 -2.016,-2.121 -2.016,-2.666 0,-0.193 0.083,-0.322 0.247,-0.322 0.539,0 2.836005,3.598 4.230005,3.598 0.399,0 0.481,-0.405 0.481,-0.739 0,-0.357 -0.247,-1.06 -0.317,-1.382 l -2.918005,-9.498 z"
             id="path4630"
             style="fill:#e22526;fill-opacity:1;fill-rule:nonzero;stroke:none"
             inkscape:connector-curvature="0" /></g><g
           transform="translate(369.3867,382.582)"
           id="g4632"><path
             d="m 107.4141,0 c 0.34,0.867 0.773,2.051 0.773,3 0,1.471 -1.148,2.291 -2.531,2.291 -5.285,0 -10.066005,-7.201 -12.316005,-11.291 l -0.082,0.076 1.758,5.602 c 0.316,1.107 0.703,2.408 0.703,3.609 0,1.184 -0.422,2.004 -1.688,2.004 -1.711,0 -3.844,-2.051 -4.863,-3.281 -0.328,-0.328 -1.77,-2.203 -1.77,-2.655 0,-0.21 0.176,-0.287 0.329,-0.287 0.246,0 0.375,0.241 0.457,0.452 0.48,0.861 2.742,3.591 3.796,3.591 0.621,0 0.821,-0.451 0.821,-0.978 0,-0.692 -0.282,-1.588 -0.481,-2.244 l -3.656,-11.907 c -0.07,-0.211 -0.234,-0.738 -0.234,-0.943 0,-0.703 0.855,-0.498 1.254,-0.498 1.324,0 1.324,0.205 1.687,1.395 0.984,3.193 4.137,8.63 6.305,11.209 1.265,1.482 3.843005,4.505 6.011005,4.505 0.938,0 1.43,-0.539 1.43,-1.435 0,-0.738 -0.316,-1.524 -0.562,-2.215 l -2.907,-7.717 c -0.492,-1.283 -1.113,-3 -1.113,-4.388 0,-1.178 0.539,-1.846 1.758,-1.846 1.687,0 4.137,2.385 5.203,3.568 0.316,0.334 1.84,2.203 1.84,2.731 0,0.175 -0.164,0.287 -0.281,0.287 -0.246,0 -0.411,-0.24 -0.504,-0.399 -0.68,-1.025 -2.977,-3.884 -4.289,-3.884 -0.493,0 -0.774,0.287 -0.774,0.808 0,0.574 0.41,1.553 0.61,2.092 L 107.4141,0 Z"
             id="path4634"
             style="fill:#e22526;fill-opacity:1;fill-rule:nonzero;stroke:none"
             inkscape:connector-curvature="0" /></g><g
           transform="translate(382.125,386.1914)"
           id="g4636"><path
             d="m 107.4141,0 3.27,0 c 0.246,0 0.738,-0.082 0.949,0.205 0.105,0.293 0.152,0.404 0.152,0.568 0,0.37 -0.82,0.299 -0.937,0.299 l -3.106,0 0.774,2.491 c 0.527,1.751 1.218,4.248 2.449,5.595 0.457,0.545 1.277,1.19 2.015,1.19 1.793,0 0.235,-3.077 2.778,-3.077 1.066,0 1.758,0.704 1.758,1.811 0,1.717 -1.477,2.373 -2.989,2.373 -1.957,0 -4.746,-1.605 -6.093,-2.988 -1.641,-1.723 -2.625,-4.459 -3.27,-6.703 l -0.211,-0.692 -2.379,0 c -0.644,0 -1.148,0.035 -1.148,-0.785 0,-0.416 0.75,-0.287 0.949,-0.287 l 2.25,0 -5.274005,-17.273 c -0.574,-1.881 -1.593,-5.397 -2.613,-6.985 -0.504,-0.785 -1.148,-1.476 -2.133,-1.476 -0.82,0 -0.82,0.574 -0.785,1.224 0.047,1.184 -0.398,2.414 -1.758,2.414 -0.972,0 -1.757,-0.732 -1.757,-1.716 0,-1.922 2.121,-2.625 3.714,-2.625 2.508,0 4.465,1.546 5.79,3.515 1.253005,1.934 1.757005,3.733 2.402005,5.901 L 107.4141,0 Z"
             id="path4638"
             style="fill:#e22526;fill-opacity:1;fill-rule:nonzero;stroke:none"
             inkscape:connector-curvature="0" /></g><g
           transform="translate(401.7187,381.7324)"
           id="g4640"><path
             d="m 107.4141,0 c 0,-4.418 -2.941,-12.193 -8.227005,-12.193 -3.316,0 -4.218,2.9 -4.218,5.724 0,4.588 2.824,11.789 8.297005,11.789 3.211,0 4.148,-2.543 4.148,-5.32 m 2.824,-1.852 c 0,4.049 -2.906,7.993 -7.195,7.993 -5.695005,0 -11.016005,-5.614 -11.016005,-11.25 0,-3.979 2.532,-7.998 6.879,-7.998 2.860005,0 6.012005,1.728 8.016005,3.738 1.969,1.957 3.316,4.775 3.316,7.517"
             id="path4642"
             style="fill:#e22526;fill-opacity:1;fill-rule:nonzero;stroke:none"
             inkscape:connector-curvature="0" /></g><g
           transform="translate(408.2344,370.8047)"
           id="g4644"><path
             d="m 107.4141,0 c -0.047,-0.17 -0.293,-0.943 -0.293,-1.154 0,-0.61 0.773,-0.528 1.148,-0.528 1.641,0 1.524,0.334 1.969,1.846 0.774,2.613 3.434,7.652 4.946,10.025 0.445,0.739 2.953,4.424 4.054,4.424 1.102,0 -0.035,-2.004 2.004,-2.004 1.219,0 1.875,1.301 1.875,2.409 0,1.265 -0.808,2.05 -2.039,2.05 -3.516,0 -7.535,-8.261 -9.047,-10.968 l 1.758,5.771 c 0.293,0.897 0.574,1.799 0.574,2.777 0,0.897 -0.281,2.42 -1.512,2.42 -1.347,0 -3.234,-1.681 -4.089,-2.66 -0.411,-0.463 -2.086,-2.42 -2.086,-3.076 0,-0.164 0.117,-0.281 0.281,-0.281 0.246,0 0.492,0.451 0.621,0.615 l 0.363,0.527 c 0.493,0.692 2.086,2.743 3.036,2.743 0.445,0 0.527,-0.493 0.527,-0.862 0,-0.738 -0.293,-1.64 -0.492,-2.373 L 107.4141,0 Z"
             id="path4646"
             style="fill:#e22526;fill-opacity:1;fill-rule:nonzero;stroke:none"
             inkscape:connector-curvature="0" /></g><g
           transform="translate(430.8164,377.1914)"
           id="g4648"><path
             d="m 107.4141,0 1.676,5.437 c 0.328,1.061 0.621,2.204 0.621,3.323 0,0.767 -0.082,1.922 -1.113,1.922 -1.676,0 -3.815,-2.004 -4.911,-3.123 -0.328,-0.311 -2.039,-2.315 -2.039,-2.778 0,-0.158 0.082,-0.322 0.282,-0.322 0.328,0 0.656,0.562 0.82,0.82 0.492,0.739 2.578,3.147 3.516,3.147 0.375,0 0.492,-0.451 0.492,-0.739 0,-0.773 -0.235,-1.511 -0.446,-2.25 l -3.644,-11.83 c -0.082,-0.316 -0.246,-0.808 -0.246,-1.177 0,-0.651 0.902,-0.498 1.312,-0.498 1.43,0 1.231,0.047 1.711,1.599 1.02,3.44 3.645,8.186 5.813,11.057 0.82,1.06 3.351,4.207 4.992,4.207 0.867,0 1.184,-0.691 1.184,-1.477 0,-0.82 -0.317,-1.834 -0.563,-2.619 l -3.398,-11.121 c -0.047,-0.17 -0.329,-1.025 -0.329,-1.183 0,-0.616 1.102,-0.463 1.395,-0.463 1.418,0 1.301,0.252 1.664,1.511 0.949,3.123 3.328,7.618 5.168,10.313 1.02,1.523 3.727,5.08 5.766,5.08 0.902,0 1.347,-0.369 1.347,-1.359 0,-0.979 -0.726,-2.936 -1.054,-3.885 l -2.133,-5.889 c -0.41,-1.183 -1.137,-3.176 -1.137,-4.412 0,-1.107 0.399,-1.852 1.582,-1.852 1.723,0 3.891,2.051 4.922,3.235 0.445,0.498 2.039,2.408 2.039,3.146 0,0.176 -0.129,0.287 -0.328,0.287 -0.164,0 -0.281,-0.193 -0.363,-0.322 -0.657,-1.025 -2.918,-4.207 -4.225,-4.207 -0.439,0 -0.65,0.358 -0.65,0.774 0,0.574 0.129,0.896 0.328,1.429 l 3.07,8.438 c 0.457,1.265 0.902,2.648 0.902,4.008 0,1.546 -0.984,2.455 -2.578,2.455 -2.179,0 -4.793,-2.18 -6.093,-3.733 -1.84,-2.168 -3.235,-4.705 -4.629,-7.189 l 1.265,4.172 c 0.328,1.089 0.657,2.291 0.657,3.468 0,1.553 -0.575,3.282 -2.415,3.282 -3.808,0 -7.98,-6.832 -9.691,-9.791 L 107.4141,0 Z"
             id="path4650"
             style="fill:#e22526;fill-opacity:1;fill-rule:nonzero;stroke:none"
             inkscape:connector-curvature="0" /></g><g
           transform="translate(475.3477,384.9551)"
           id="g4652"><path
             d="m 107.4141,0 c 0,-1.881 -3.369,-6.545 -4.5,-7.975 -1.43,-1.793 -5.086005,-6.175 -7.570005,-6.175 -1.313,0 -1.875,1.347 -1.875,2.49 0,2.584 2.156,6.721 3.715,8.678 1.722,2.25 4.623005,5.115 7.599005,5.115 1.401,0 2.631,-0.61 2.631,-2.133 m 0.609,1.477 c -0.855,1.107 -1.757,1.441 -3.14,1.441 -3.727,0 -7.407005,-2.338 -9.914005,-4.957 -2.321,-2.455 -4.7,-6.592 -4.7,-10.061 0,-2.015 0.938,-4.224 3.235,-4.224 4.828,0 10.306005,7.822 12.598005,11.578 l -2.497,-8.092 c -0.199,-0.703 -0.445,-1.512 -0.445,-2.291 0,-0.703 0.375,-1.195 1.102,-1.195 1.64,0 3.843,1.933 4.875,3.029 0.492,0.539 2.162,2.66 2.162,3.399 0,0.158 -0.123,0.333 -0.287,0.333 -0.282,0 -0.575,-0.527 -0.692,-0.738 -0.48,-0.785 -2.414,-3.351 -3.433,-3.351 -0.334,0 -0.41,0.275 -0.41,0.609 0,0.357 0.246,1.025 0.322,1.348 l 4.213,13.828 c 0.041,0.176 0.211,0.615 0.211,0.82 0,0.574 -1.149,0.369 -1.383,0.369 -1.36,0 -1.283,-0.205 -1.688,-1.476 l -0.129,-0.369 z"
             id="path4654"
             style="fill:#e22526;fill-opacity:1;fill-rule:nonzero;stroke:none"
             inkscape:connector-curvature="0" /></g><g
           transform="translate(489.3867,386.1914)"
           id="g4656"><path
             d="m 107.4141,0 3.152,0 c 0.246,0 0.832,-0.047 0.95,0.24 0.117,0.287 0.152,0.369 0.152,0.58 0,0.369 -0.82,0.252 -0.891,0.252 l -3.07,0 1.055,3.387 c 0.093,0.24 0.257,0.773 0.257,1.061 0,0.533 -1.031,0.363 -1.312,0.363 -0.492,0 -1.184,0.135 -1.441,-0.446 l -1.348,-4.365 -2.449,0 c -0.621,0 -1.102,0.035 -1.102,-0.75 0,-0.404 0.727,-0.322 0.932,-0.322 l 2.326,0 -3.633,-11.877 c -0.316,-1.019 -0.773,-2.402 -0.773,-3.516 0,-0.937 0.363,-2.168 1.523,-2.168 1.875,0 4.406,2.877 5.438,4.26 0.234,0.322 1.218,1.67 1.218,2.121 0,0.176 -0.123,0.334 -0.328,0.334 -0.199,0 -0.328,-0.287 -0.445,-0.48 -0.164,-0.305 -0.58,-0.832 -0.738,-1.108 -0.575,-0.785 -2.092,-2.742 -3.071,-2.742 -0.492,0 -0.656,0.446 -0.656,0.85 0,0.545 0.328,1.476 0.492,1.969 L 107.4141,0 Z"
             id="path4658"
             style="fill:#e22526;fill-opacity:1;fill-rule:nonzero;stroke:none"
             inkscape:connector-curvature="0" /></g><g
           transform="translate(504.4922,393.1875)"
           id="g4660"><path
             d="m 107.4141,0 c 0,0.773 -0.539,1.43 -1.348,1.43 -1.195,0 -2.086,-1.553 -2.086,-2.619 0,-0.786 0.411,-1.518 1.266,-1.518 1.266,0 2.168,1.564 2.168,2.707 m -8.602005,-19.318 c -0.281,-0.979 -0.726,-2.532 -0.726,-3.592 0,-0.955 0.199,-1.647 1.265,-1.647 1.723005,0 4.008005,2.385 4.993005,3.616 0.41,0.521 1.722,2.203 1.722,2.894 0,0.158 -0.047,0.287 -0.246,0.287 -0.299,0 -0.457,-0.287 -0.574,-0.533 -0.492,-0.814 -2.578,-3.721 -3.609,-3.721 -0.364,0 -0.528,0.334 -0.528,0.739 0,0.527 0.211,1.107 0.364,1.634 l 3.035,9.821 c 0.246,0.738 0.703,2.215 0.703,2.982 0,0.914 -0.293,1.524 -1.277,1.524 -1.559,0 -3.797,-2.004 -4.829005,-2.995 -0.334,-0.328 -2.004,-2.121 -2.004,-2.666 0,-0.193 0.083,-0.322 0.247,-0.322 0.527,0 2.824005,3.598 4.218005,3.598 0.399,0 0.487,-0.405 0.487,-0.739 0,-0.357 -0.252,-1.06 -0.334,-1.382 l -2.907005,-9.498 z"
             id="path4662"
             style="fill:#e22526;fill-opacity:1;fill-rule:nonzero;stroke:none"
             inkscape:connector-curvature="0" /></g><g
           transform="translate(510.832,377.1445)"
           id="g4664"><path
             d="m 107.4141,0 c 1.465,2.789 5.859,9.047 9.281,9.047 1.114,0 1.817,-0.82 1.817,-1.881 0,-1.969 -1.524,-3.732 -3.035,-4.875 C 113.5081,0.82 110.8481,0 108.3981,0 l -0.984,0 z m -0.363,-0.727 c 1.259,0.241 1.875,-1.072 2.285,-2.015 1.183,-2.684 2.414,-5.772 5.848,-5.772 2.168,0 4.183,1.436 4.183,3.686 0,1.142 -0.621,2.244 -1.887,2.244 -0.609,0 -1.019,-0.527 -1.019,-1.102 0,-1.464 1.746,-0.855 1.746,-2.238 0,-0.937 -0.897,-1.57 -1.746,-1.57 -1.805,0 -2.754,2.379 -3.404,3.726 -0.616,1.313 -1.26,2.754 -2.702,3.282 2.426,0.375 5.039,0.726 7.161,1.998 2.003,1.195 3.855,3.158 3.855,5.607 0,1.928 -1.477,3.61 -3.445,3.61 -4.008,0 -8.801,-6.141 -10.6,-9.428 l 5.408,17.689 c 0.076,0.199 0.323,0.985 0.323,1.225 0,0.158 -0.112,0.287 -0.276,0.287 -0.129,0 -0.34,-0.082 -0.474,-0.129 -1.588,-0.932 -2.842,-1.014 -4.647,-1.014 -0.334,0 -0.937,0.036 -0.937,-0.416 0,-0.445 0.398,-0.398 0.726,-0.398 0.738,-0.047 1.805,-0.129 1.805,-1.108 0,-0.58 -0.375,-1.716 -0.528,-2.296 l -6.632,-21.768 c -0.082,-0.234 -0.258,-0.738 -0.258,-0.978 0,-0.569 1.078,-0.416 1.371,-0.416 1.576,0 1.266,0.369 1.828,1.892 l 2.016,5.402 z"
             id="path4666"
             style="fill:#e22526;fill-opacity:1;fill-rule:nonzero;stroke:none"
             inkscape:connector-curvature="0" /></g><g
           transform="translate(541.3945,381.7324)"
           id="g4668"><path
             d="m 107.4141,0 c 0,-4.418 -2.941,-12.193 -8.215005,-12.193 -3.316,0 -4.219,2.9 -4.219,5.724 0,4.588 2.825,11.789 8.291005,11.789 3.206,0 4.143,-2.543 4.143,-5.32 m 2.824,-1.852 c 0,4.049 -2.894,7.993 -7.201,7.993 -5.689005,0 -11.004005,-5.614 -11.004005,-11.25 0,-3.979 2.537,-7.998 6.885,-7.998 2.853005,0 6.012005,1.728 8.004005,3.738 1.969,1.957 3.316,4.775 3.316,7.517"
             id="path4670"
             style="fill:#e22526;fill-opacity:1;fill-rule:nonzero;stroke:none"
             inkscape:connector-curvature="0" /></g><g
           transform="translate(311.1094,465.7441)"
           id="g4672"><path
             d="m 60.187145,-1.033589 c 0,-2.051 0.047,-3.896 -1.465,-5.437 -1.687,-1.694 -4.301,-2.209 -6.633,-2.209 -2.25,0 -5.355,0.55 -6.621,2.654 -0.949,1.512 -0.867,4.494 -0.867,6.293 l 0,11.537 c 0,2.578 -0.187,3.351 2.648,3.351 0.387,0 1.079,0 1.079,0.545 0,0.439 -0.329,0.574 -0.692,0.574 -1.558,0 -3.117,-0.17 -4.676,-0.17 -1.546,0 -3.023,0.17 -4.582,0.17 -0.398,0 -0.691,-0.135 -0.691,-0.574 0,-0.545 0.656,-0.545 1.031,-0.545 2.86,0 2.649,-0.773 2.649,-3.351 l 0,-12.838 c 0,-2.707 -0.035,-5.051 2.414,-6.803 2.051,-1.424 5.203,-1.875 7.605,-1.875 2.719,0 5.649,0.405 7.699,2.168 2.215,1.922 2.25,3.879 2.25,6.51 l 0,12.756 c 0,1.887 -0.211,3.433 2.133,3.433 0.375,0 1.313,0 1.313,0.58 0,0.492 -0.539,0.539 -0.867,0.539 -1.055,0 -2.122,-0.17 -3.188,-0.17 -1.23,0 -2.449,0.17 -3.691,0.17 -0.399,0 -0.856,-0.135 -0.856,-0.574 0,-0.58 0.738,-0.545 1.113,-0.545 0.938,0 1.958,-0.035 2.45,-0.932 0.492,-0.825 0.445,-3.064 0.445,-4.042 l 0,-11.215 z"
             id="path4674"
             style="fill:#231f20;fill-opacity:1;fill-rule:nonzero;stroke:none"
             inkscape:connector-curvature="0" /></g><g
           transform="translate(318.3984,461.7305)"
           id="g4676"><path
             d="m 60.187145,-1.033589 c 0,-1.764 0.375,-3.152 -1.84,-3.363 -0.445,-0.035 -1.137,0.047 -1.137,-0.563 0,-0.334 0.282,-0.422 0.575,-0.422 1.265,0 2.578,0.17 3.879,0.17 1.218,0 2.543,-0.17 3.855,-0.17 0.281,0 0.48,0.135 0.48,0.457 0,0.528 -0.738,0.493 -1.136,0.528 -2.215,0.211 -1.84,1.599 -1.84,3.363 l 0,6.879 c 0,1.629 0.129,2.531 1.301,3.762 1.066,1.107 2.508,1.757 4.054,1.757 1.594,0 3.071,-0.65 3.856,-1.851 0.726,-1.102 0.726,-2.731 0.726,-4.043 l 0,-6.504 c 0,-1.764 0.364,-3.152 -1.839,-3.363 -0.446,-0.035 -1.149,0.047 -1.149,-0.563 0,-0.334 0.293,-0.422 0.574,-0.422 1.266,0 2.579,0.17 3.891,0.17 1.23,0 2.543,-0.17 3.844,-0.17 0.281,0 0.492,0.135 0.492,0.457 0,0.528 -0.738,0.493 -1.149,0.528 -2.214,0.211 -1.839,1.599 -1.839,3.363 l 0,6.457 c 0,1.969 0.082,3.973 -1.231,5.66 -1.137,1.477 -2.777,2.197 -4.828,2.197 -3.727,0 -6.012,-3.351 -6.703,-3.351 l 0,2.701 c 0,0.281 0.035,0.65 -0.375,0.65 -0.328,0 -0.527,-0.322 -0.727,-0.527 -0.656,-0.773 -2.425,-1.846 -3.41,-2.127 -0.363,-0.123 -0.926,-0.211 -0.926,-0.697 0,-0.24 0.235,-0.322 0.481,-0.322 l 0.539,0 c 0.316,0 0.926,-0.047 1.184,-0.334 0.445,-0.44 0.398,-2.039 0.398,-2.608 l 0,-7.699 z"
             id="path4678"
             style="fill:#231f20;fill-opacity:1;fill-rule:nonzero;stroke:none"
             inkscape:connector-curvature="0" /></g><g
           transform="translate(343.4414,479.6074)"
           id="g4680"><path
             d="m 60.187145,-1.033589 c 1.195,0 1.805,0.943 1.805,2.05 0,0.979 -0.645,1.957 -1.711,1.957 -1.102,0 -1.84,-0.978 -1.84,-2.045 0,-1.066 0.656,-1.962 1.746,-1.962 m 1.441,-4.207 c 0,0.275 0.036,0.639 -0.363,0.639 -0.34,0 -0.539,-0.317 -0.75,-0.528 -0.644,-0.761 -2.414,-1.84 -3.387,-2.115 -0.375,-0.135 -0.937,-0.211 -0.937,-0.703 0,-0.24 0.234,-0.322 0.48,-0.322 l 0.539,0 c 0.329,0 0.938,-0.047 1.184,-0.34 0.445,-0.434 0.41,-2.028 0.41,-2.602 l 0,-7.699 c 0,-1.758 0.375,-3.164 -1.84,-3.363 -0.457,-0.035 -1.136,0.047 -1.136,-0.563 0,-0.328 0.281,-0.416 0.562,-0.416 1.266,0 2.578,0.158 3.891,0.158 1.218,0 2.531,-0.158 3.844,-0.158 0.281,0 0.492,0.123 0.492,0.451 0,0.528 -0.739,0.493 -1.137,0.528 -2.215,0.199 -1.852,1.605 -1.852,3.363 l 0,13.67 z"
             id="path4682"
             style="fill:#231f20;fill-opacity:1;fill-rule:nonzero;stroke:none"
             inkscape:connector-curvature="0" /></g><g
           transform="translate(358.8281,461.2852)"
           id="g4684"><path
             d="m 60.187145,-1.033589 -4.172,10.219 c -0.211,0.486 -0.656,1.523 -0.656,2.051 0,0.773 0.773,1.136 1.512,1.136 0.293,0 1.148,-0.111 1.148,0.375 0,0.498 -0.41,0.451 -0.785,0.451 l -7.395,0 c -0.328,0 -0.621,0.047 -0.621,-0.369 0,-0.457 0.457,-0.457 0.774,-0.457 1.722,-0.07 1.933,-0.843 2.543,-2.367 l 5.941,-14.314 0.234,-0.545 c 0.047,-0.159 0.165,-0.399 0.387,-0.399 0.317,0 0.598,0.821 0.68,0.944 l 5.847,12.673 c 0.692,1.512 1.442,3.774 3.364,4.008 0.328,0.053 1.019,0.053 1.019,0.539 0,0.369 -0.199,0.287 -0.527,0.287 l -6.023,0 c -0.329,0 -0.61,0 -0.61,-0.369 0,-0.457 0.738,-0.457 1.102,-0.457 0.738,0 1.593,-0.281 1.593,-1.09 0,-0.492 -0.328,-1.324 -0.527,-1.763 l -4.828,-10.553 z"
             id="path4686"
             style="fill:#231f20;fill-opacity:1;fill-rule:nonzero;stroke:none"
             inkscape:connector-curvature="0" /></g><g
           transform="translate(371.8477,469.6758)"
           id="g4688"><path
             d="m 60.187145,-1.033589 c -0.445,0 -1.395,-0.129 -1.395,0.527 0,0.657 0.692,1.928 1.032,2.368 1.265,1.722 3.234,2.742 5.32,2.742 1.301,0 2.66,-0.328 3.563,-1.266 0.562,-0.615 1.066,-1.564 1.066,-2.414 0,-0.99 -0.621,-1.43 -1.512,-1.629 -1.195,-0.299 -3.48,-0.328 -4.758,-0.328 l -3.316,0 z m 12.363,-0.996 c 0.41,0 0.481,0.375 0.481,0.691 0,1.366 -0.61,3.112 -1.418,4.149 -1.442,1.758 -3.692,2.519 -5.895,2.519 -2.789,0 -5.32,-0.937 -7.371,-2.742 -2.168,-1.869 -2.941,-4.031 -2.941,-6.814 0,-5.127 3.972,-9.416 9.328,-9.416 2.531,0 4.535,0.656 6.469,2.285 0.281,0.246 1.582,1.342 1.582,1.84 0,0.164 -0.118,0.339 -0.317,0.339 -0.539,0 -2.051,-2.666 -6.058,-2.666 -4.957,0 -7.934,3.967 -7.934,8.549 0,1.348 0.399,1.266 1.676,1.266 l 12.398,0 z"
             id="path4690"
             style="fill:#231f20;fill-opacity:1;fill-rule:nonzero;stroke:none"
             inkscape:connector-curvature="0" /></g><g
           transform="translate(388.8047,461.7305)"
           id="g4692"><path
             d="m 60.187145,-1.033589 c 0,-1.764 0.375,-3.152 -1.84,-3.363 -0.457,-0.035 -1.16,0.047 -1.16,-0.563 0,-0.334 0.293,-0.422 0.586,-0.422 1.266,0 2.578,0.17 3.879,0.17 1.23,0 2.531,-0.17 3.844,-0.17 0.293,0 0.503,0.135 0.503,0.457 0,0.528 -0.738,0.493 -1.148,0.528 -2.215,0.211 -1.84,1.599 -1.84,3.363 l 0,6.457 c 0,1.652 -0.082,2.707 0.938,4.09 0.445,0.621 1.183,1.488 2.086,1.488 1.136,0 1.218,-1.57 2.613,-1.57 0.984,0 1.723,0.633 1.723,1.652 0,1.219 -1.102,1.957 -2.321,1.957 -2.836,0 -4.429,-3.275 -4.84,-3.275 -0.281,0 -0.199,0.691 -0.199,0.861 l 0,2.004 c 0,0.281 0.035,0.65 -0.375,0.65 -0.328,0 -0.527,-0.322 -0.726,-0.527 -0.657,-0.773 -2.414,-1.846 -3.41,-2.127 -0.364,-0.123 -0.938,-0.211 -0.938,-0.697 0,-0.24 0.246,-0.322 0.492,-0.322 l 0.528,0 c 0.328,0 0.949,-0.047 1.195,-0.334 0.445,-0.44 0.41,-2.039 0.41,-2.608 l 0,-7.699 z"
             id="path4694"
             style="fill:#231f20;fill-opacity:1;fill-rule:nonzero;stroke:none"
             inkscape:connector-curvature="0" /></g><g
           transform="translate(415.6406,474.0527)"
           id="g4696"><path
             d="m 60.187145,-1.033589 c 0.164,0.193 0.656,0.861 0.656,1.178 0,0.369 -0.492,0.287 -0.726,0.287 l -9.996,0 c -1.02,0 -2.075,-0.088 -2.075,1.178 0,0.298 -0.058,0.662 -0.422,0.662 -0.41,0 -0.656,-0.897 -0.726,-1.143 l -1.078,-3.105 c -0.035,-0.129 -0.281,-0.786 -0.281,-0.95 0,-0.211 0.164,-0.322 0.375,-0.322 0.328,0 0.527,0.404 0.691,0.639 0.445,0.668 1.301,1.371 2.051,1.687 0.972,0.457 2.25,0.34 3.269,0.34 l 4.09,0 c 0.211,0 0.692,0 0.692,-0.305 0,-0.246 -0.364,-0.726 -0.481,-0.896 l -10.887,-14.385 c -0.082,-0.17 -0.574,-0.703 -0.574,-0.961 0,-0.615 1.149,-0.404 1.477,-0.404 l 13.91,0 c 0.82,-0.088 0.609,0.943 0.609,1.436 l 0.082,2.009 c 0,0.287 0.199,1.553 -0.375,1.553 -0.398,0 -0.48,-0.527 -0.562,-0.82 -0.422,-1.067 -0.821,-2.051 -1.84,-2.625 -1.067,-0.563 -2.871,-0.61 -4.102,-0.61 l -3.55,0 c -0.165,0 -1.43,-0.082 -1.43,0.334 0,0.276 0.48,0.85 0.644,1.014 l 10.559,14.209 z"
             id="path4698"
             style="fill:#231f20;fill-opacity:1;fill-rule:nonzero;stroke:none"
             inkscape:connector-curvature="0" /></g><g
           transform="translate(428.707,467.0918)"
           id="g4700"><path
             d="m 60.187145,-1.033589 c 0.117,0.047 0.328,0.158 0.445,0.158 0.399,0 0.293,-0.984 0.293,-1.137 l 0,-2.466 c 0,-1.348 -0.047,-2.039 -1.031,-3.065 -0.984,-0.978 -2.379,-1.64 -3.797,-1.64 -1.523,0 -2.824,0.82 -2.824,2.42 0,1.974 1.594,3.023 3.187,3.837 l 3.727,1.893 z m -3.926,-1.061 c -2.297,-1.066 -6.058,-2.835 -6.058,-5.724 0,-2.057 1.921,-3.24 3.832,-3.24 3.574,0 6.234,3.117 6.597,3.117 0.575,0 0.785,-2.877 2.778,-2.877 1.066,0 2.097,0.627 2.906,1.189 0.293,0.246 0.984,0.815 0.984,1.266 0,0.176 -0.117,0.334 -0.281,0.334 -0.375,0 -0.82,-1.025 -1.852,-1.025 -1.464,0 -1.417,2.367 -1.417,3.275 l 0,9.639 c 0,1.125 0.152,2.15 -0.821,3 -0.949,0.82 -2.461,1.06 -3.726,1.06 -2.614,0 -5.403,-1.096 -7.313,-2.83 -0.785,-0.639 -1.734,-1.822 -1.734,-2.894 0,-0.399 0.211,-0.487 0.527,-0.487 0.504,0 1.359,0.322 1.77,0.533 0.656,0.276 0.855,0.856 1.148,1.471 0.938,2.092 2.203,3.428 4.699,3.428 2.532,0 2.625,-1.664 2.625,-3.668 l 0,-1.817 c 0,-1.546 -0.047,-1.593 -1.511,-2.285 l -3.153,-1.465 z"
             id="path4702"
             style="fill:#231f20;fill-opacity:1;fill-rule:nonzero;stroke:none"
             inkscape:connector-curvature="0" /></g><g
           transform="translate(459.3633,471.873)"
           id="g4704"><path
             d="m 60.187145,-1.033589 c 0.363,0.949 0.773,1.928 0.773,2.953 0,0.932 -0.492,1.471 -1.441,1.471 -1.055,0 -2.367,-0.861 -3.176,-1.471 -1.324,-0.978 -2.015,-1.682 -2.953,-2.988 -0.129,-0.205 -0.527,-0.738 -0.527,-0.979 0,-0.164 0.07,-0.34 0.246,-0.34 0.199,0 0.398,0.247 0.492,0.375 0.527,0.821 2.742,3.399 3.762,3.399 0.363,0 0.574,-0.246 0.574,-0.621 0,-0.445 -0.457,-1.395 -0.627,-1.799 l -2.935,-7.283 c -0.411,-1.014 -1.137,-2.936 -1.137,-4.008 0,-2.543 1.342,-3.516 3.715,-3.516 6.703,0 13.582,10.588 13.582,16.7 0,0.972 -0.41,2.941 -1.676,2.941 -0.856,0 -1.395,-1.066 -1.395,-1.799 0,-0.82 0.375,-1.4 0.774,-2.01 0.363,-0.574 0.504,-0.978 0.504,-1.675 0,-4.371 -5.895,-12.809 -10.606,-12.809 -1.219,0 -2.086,0.943 -2.086,2.133 0,0.972 0.457,2.168 0.821,3.099 l 3.316,8.227 z"
             id="path4706"
             style="fill:#231f20;fill-opacity:1;fill-rule:nonzero;stroke:none"
             inkscape:connector-curvature="0" /></g><g
           transform="translate(498.1992,461.9297)"
           id="g4708"><path
             d="m 60.187145,-1.033589 c 0.094,0.299 0.246,0.785 0.246,1.113 0,0.235 -0.152,0.364 -0.41,0.364 -0.445,0 -0.691,-0.739 -0.856,-1.067 -2.003,-4.09 -4.957,-3.773 -8.918,-3.773 -0.703,0 -1.693,-0.153 -1.693,0.838 0,0.357 0.217,1.013 0.334,1.388 l 5.567,18.123 c 0.621,1.951 0.867,3.158 3.609,3.111 0.398,0 1.219,-0.094 1.219,0.539 0,0.44 -0.41,0.492 -0.774,0.492 -1.594,-0.052 -3.234,-0.175 -4.828,-0.175 -1.266,0 -2.531,0.123 -3.809,0.175 -0.328,0 -1.265,0.2 -1.265,-0.339 0,-0.61 0.574,-0.739 1.019,-0.692 0.868,0.117 2.004,0.164 2.004,-1.072 0,-0.515 -0.334,-1.511 -0.48,-2.004 l -5.274,-17.22 c -0.293,-0.914 -0.621,-2.203 -1.406,-2.789 -0.574,-0.446 -1.465,-0.446 -2.174,-0.446 -0.439,-0.035 -1.048,-0.035 -1.048,-0.656 0,-0.539 1.71,-0.281 2.156,-0.281 l 13.957,0 c 1.435,0 1.476,0 1.887,1.301 l 0.937,3.07 z"
             id="path4710"
             style="fill:#231f20;fill-opacity:1;fill-rule:nonzero;stroke:none"
             inkscape:connector-curvature="0" /></g><g
           transform="translate(508.9687,471.8379)"
           id="g4712"><path
             d="m 60.187145,-1.033589 c 0.246,0.738 0.691,2.215 0.691,2.953 0,0.885 -0.281,1.512 -1.265,1.512 -1.559,0 -3.774,-2.01 -4.781,-3 -0.329,-0.276 -2.051,-2.08 -2.051,-2.608 0,-0.211 0.082,-0.328 0.275,-0.328 0.545,0 2.783,3.563 4.225,3.563 0.375,0 0.492,-0.422 0.492,-0.738 0,-0.34 -0.293,-1.032 -0.363,-1.354 l -6.024,-19.682 c -0.375,-1.265 -0.826,-3.316 -2.496,-3.316 -1.723,0 -1.547,2.531 -3.223,2.531 -0.785,0 -1.394,-0.644 -1.394,-1.429 0,-1.553 1.875,-2.04 3.152,-2.04 1.793,0 3.633,0.903 4.899,2.168 1.64,1.664 2.543,4.207 3.199,6.387 l 4.664,15.381 z m 2.906,9.773 c 0,0.785 -0.492,1.441 -1.312,1.441 -1.184,0 -2.086,-1.552 -2.086,-2.571 0,-0.827 0.41,-1.559 1.265,-1.559 1.278,0 2.133,1.559 2.133,2.689"
             id="path4714"
             style="fill:#231f20;fill-opacity:1;fill-rule:nonzero;stroke:none"
             inkscape:connector-curvature="0" /></g><g
           transform="translate(527.5312,467.9883)"
           id="g4716"><path
             d="m 60.187145,-1.033589 -1.793,-5.812 c -0.281,-0.985 -0.738,-2.579 -0.738,-3.598 0,-0.703 0.258,-1.512 1.101,-1.512 1.934,0 4.43,2.039 5.614,3.387 0.328,0.375 2.074,2.584 2.074,3.164 0,0.158 -0.106,0.281 -0.27,0.281 -0.211,0 -0.386,-0.281 -0.492,-0.451 -0.668,-1.096 -2.906,-4.049 -4.301,-4.049 -0.445,0 -0.656,0.445 -0.656,0.815 0,0.48 0.211,1.213 0.375,1.716 l 3.961,12.973 c 0.082,0.246 0.246,0.703 0.246,0.984 0,0.61 -1.055,0.416 -1.383,0.416 -1.558,0 -1.277,-0.205 -1.722,-1.716 -1.266,-4.096 -3.27,-7.735 -6.094,-10.969 -1.149,-1.354 -4.553,-4.711 -6.469,-4.711 -0.738,0 -1.101,0.445 -1.101,1.143 0,0.58 0.281,1.429 0.445,1.974 l 3.269,9.768 c 0.293,0.826 0.622,1.845 0.622,2.713 0,0.843 -0.288,1.798 -1.319,1.798 -1.506,0 -3.557,-1.763 -4.506,-2.701 -0.398,-0.457 -2.191,-2.672 -2.191,-3.363 0,-0.164 0.035,-0.24 0.199,-0.24 0.375,0 0.738,0.638 0.902,0.896 0.528,0.774 2.379,3.199 3.434,3.199 0.445,0 0.574,-0.328 0.574,-0.703 0,-0.41 -0.328,-1.23 -0.445,-1.599 l -3.199,-9.287 c -0.328,-0.944 -0.774,-2.332 -0.774,-3.305 0,-1.236 0.446,-2.133 1.758,-2.133 2.484,0 5.279,2.086 7.043,3.686 2.484,2.238 3.68,4.131 5.555,6.826 l 0.281,0.41 z"
             id="path4718"
             style="fill:#231f20;fill-opacity:1;fill-rule:nonzero;stroke:none"
             inkscape:connector-curvature="0" /></g><g
           transform="translate(553.125,470.8125)"
           id="g4720"><path
             d="m 60.187145,-1.033589 c 0,-4.91 -5.074,-13.055 -10.477,-13.055 -1.675,0 -3.023,0.815 -3.023,2.625 0,3.885 6.996,14.028 11.203,14.028 1.887,0 2.297,-2.133 2.297,-3.598 m -14.73,-4.219 c -0.446,-1.506 -1.067,-3.152 -1.067,-4.793 0,-3.228 2.344,-4.734 5.397,-4.734 6.931,0 13.47,6.867 13.47,13.746 0,2.59 -1.183,5.49 -4.172,5.49 -3.972,0 -8.918,-6.099 -10.722,-9.345 l 5.648,18.714 c 0,0.281 -0.117,0.398 -0.363,0.398 -0.176,0 -0.328,-0.082 -0.422,-0.152 -1.424,-0.914 -2.578,-1.031 -4.207,-1.031 -0.41,0 -1.266,-0.082 -1.266,-0.645 0,-0.504 1.184,-0.416 1.43,-0.416 0.656,0 1.102,-0.17 1.102,-0.943 0,-0.481 -0.328,-1.547 -0.498,-2.045 l -4.33,-14.244 z"
             id="path4722"
             style="fill:#231f20;fill-opacity:1;fill-rule:nonzero;stroke:none"
             inkscape:connector-curvature="0" /></g><g
           transform="translate(558.7031,462.2637)"
           id="g4724"><path
             d="m 60.187145,-1.033589 c -0.328,-1.072 -0.738,-2.455 -0.738,-3.615 0,-0.926 0.199,-1.582 1.265,-1.582 1.711,0 4.055,2.367 4.993,3.562 0.41,0.481 1.722,2.162 1.722,2.901 0,0.158 -0.047,0.287 -0.211,0.287 -0.328,0 -0.492,-0.334 -0.621,-0.539 -0.48,-0.856 -2.566,-3.721 -3.551,-3.721 -0.41,0 -0.574,0.381 -0.574,0.691 0,0.575 0.246,1.143 0.41,1.647 l 6.996,22.839 c 0.047,0.153 0.235,0.774 0.235,0.961 0,0.211 -0.117,0.375 -0.299,0.375 -0.135,0 -0.299,-0.117 -0.381,-0.164 -1.348,-1.019 -3.07,-1.476 -4.711,-1.547 -0.398,0 -1.219,0.047 -1.219,-0.533 0,-0.287 0.2,-0.451 0.493,-0.451 l 0.644,0.035 c 0.703,0.047 1.594,-0.082 1.594,-1.02 0,-0.363 -0.281,-1.306 -0.41,-1.675 l -5.637,-18.451 z"
             id="path4726"
             style="fill:#231f20;fill-opacity:1;fill-rule:nonzero;stroke:none"
             inkscape:connector-curvature="0" /></g><g
           transform="translate(576.75,471.8379)"
           id="g4728"><path
             d="m 60.187145,-1.033589 c 0.234,0.738 0.703,2.215 0.703,2.953 0,0.885 -0.293,1.512 -1.289,1.512 -1.564,0 -3.762,-2.01 -4.781,-3 -0.328,-0.276 -2.039,-2.08 -2.039,-2.608 0,-0.211 0.082,-0.328 0.275,-0.328 0.545,0 2.783,3.563 4.225,3.563 0.363,0 0.492,-0.422 0.492,-0.738 0,-0.34 -0.293,-1.032 -0.375,-1.354 l -6.012,-19.682 c -0.375,-1.265 -0.838,-3.316 -2.496,-3.316 -1.723,0 -1.558,2.531 -3.234,2.531 -0.774,0 -1.395,-0.644 -1.395,-1.429 0,-1.553 1.875,-2.04 3.153,-2.04 1.793,0 3.638,0.903 4.91,2.168 1.64,1.664 2.531,4.207 3.187,6.387 l 4.676,15.381 z m 2.895,9.773 c 0,0.785 -0.481,1.441 -1.313,1.441 -1.172,0 -2.086,-1.552 -2.086,-2.571 0,-0.827 0.422,-1.559 1.277,-1.559 1.266,0 2.122,1.559 2.122,2.689"
             id="path4730"
             style="fill:#231f20;fill-opacity:1;fill-rule:nonzero;stroke:none"
             inkscape:connector-curvature="0" /></g><g
           transform="translate(595.9687,473.3965)"
           id="g4732"><path
             d="m 60.187145,-1.033589 c 0,-1.893 -3.352,-6.545 -4.5,-7.986 -1.43,-1.799 -5.074,-6.176 -7.57,-6.176 -1.313,0 -1.875,1.348 -1.875,2.496 0,2.566 2.156,6.709 3.726,8.678 1.711,2.25 4.617,5.115 7.606,5.115 1.394,0 2.613,-0.615 2.613,-2.127 m 0.621,1.465 c -0.867,1.101 -1.769,1.435 -3.152,1.435 -3.727,0 -7.418,-2.338 -9.903,-4.968 -2.343,-2.438 -4.711,-6.563 -4.711,-10.043 0,-2.004 0.938,-4.219 3.235,-4.219 4.84,0 10.312,7.81 12.609,11.584 l -2.508,-8.104 c -0.199,-0.703 -0.445,-1.523 -0.445,-2.296 0,-0.704 0.375,-1.184 1.113,-1.184 1.629,0 3.832,1.922 4.864,3.029 0.492,0.533 2.168,2.666 2.168,3.393 0,0.158 -0.118,0.328 -0.282,0.328 -0.293,0 -0.586,-0.539 -0.703,-0.738 -0.492,-0.786 -2.414,-3.352 -3.433,-3.352 -0.328,0 -0.41,0.293 -0.41,0.609 0,0.358 0.246,1.026 0.328,1.354 l 4.218,13.834 c 0.036,0.152 0.2,0.615 0.2,0.82 0,0.569 -1.137,0.358 -1.395,0.358 -1.348,0 -1.266,-0.205 -1.676,-1.471 l -0.117,-0.369 z"
             id="path4734"
             style="fill:#231f20;fill-opacity:1;fill-rule:nonzero;stroke:none"
             inkscape:connector-curvature="0" /></g><g
           transform="translate(623.1094,471.0234)"
           id="g4736"><path
             d="m 60.187145,-1.033589 c 0.328,0.855 0.785,2.039 0.785,2.982 0,1.477 -1.166,2.297 -2.555,2.297 -5.261,0 -10.054,-7.201 -12.304,-11.308 l -0.082,0.093 1.769,5.596 c 0.305,1.108 0.68,2.426 0.68,3.61 0,1.189 -0.416,2.009 -1.676,2.009 -1.711,0 -3.844,-2.056 -4.875,-3.275 -0.316,-0.34 -1.746,-2.215 -1.746,-2.66 0,-0.211 0.152,-0.293 0.328,-0.293 0.246,0 0.364,0.246 0.446,0.451 0.492,0.861 2.742,3.603 3.808,3.603 0.609,0 0.82,-0.457 0.82,-0.984 0,-0.691 -0.293,-1.594 -0.492,-2.25 l -3.644,-11.906 c -0.082,-0.205 -0.246,-0.738 -0.246,-0.944 0,-0.697 0.849,-0.492 1.265,-0.492 1.313,0 1.313,0.205 1.676,1.389 0.984,3.187 4.137,8.637 6.305,11.215 1.277,1.476 3.843,4.5 6.011,4.5 0.95,0 1.43,-0.528 1.43,-1.436 0,-0.738 -0.322,-1.506 -0.568,-2.197 l -2.912,-7.746 c -0.481,-1.254 -1.108,-2.971 -1.108,-4.371 0,-1.184 0.533,-1.84 1.77,-1.84 1.681,0 4.131,2.367 5.197,3.562 0.328,0.329 1.84,2.209 1.84,2.743 0,0.158 -0.164,0.269 -0.287,0.269 -0.258,0 -0.405,-0.234 -0.487,-0.398 -0.703,-1.014 -2.988,-3.879 -4.3,-3.879 -0.493,0 -0.774,0.281 -0.774,0.808 0,0.581 0.41,1.559 0.61,2.092 l 3.316,8.76 z"
             id="path4738"
             style="fill:#231f20;fill-opacity:1;fill-rule:nonzero;stroke:none"
             inkscape:connector-curvature="0" /></g><g
           transform="translate(638.6719,481.6108)"
           id="g4740"><path
             d="m 60.187145,-1.033589 c 0,0.785 -0.539,1.436 -1.359,1.436 -1.184,0 -2.086,-1.547 -2.086,-2.602 0,-0.791 0.41,-1.529 1.277,-1.529 1.266,0 2.168,1.565 2.168,2.695 m -8.602,-19.318 c -0.281,-0.973 -0.738,-2.531 -0.738,-3.586 0,-0.949 0.211,-1.64 1.277,-1.64 1.723,0 4.008,2.378 4.993,3.603 0.398,0.522 1.711,2.203 1.711,2.906 0,0.159 -0.036,0.276 -0.235,0.276 -0.293,0 -0.457,-0.276 -0.574,-0.516 -0.504,-0.832 -2.59,-3.732 -3.609,-3.732 -0.364,0 -0.528,0.334 -0.528,0.732 0,0.533 0.211,1.096 0.364,1.641 l 3.035,9.808 c 0.234,0.739 0.691,2.215 0.691,3 0,0.891 -0.281,1.512 -1.265,1.512 -1.547,0 -3.809,-2.004 -4.829,-3 -0.328,-0.316 -2.015,-2.115 -2.015,-2.654 0,-0.211 0.082,-0.323 0.258,-0.323 0.527,0 2.824,3.604 4.207,3.604 0.41,0 0.492,-0.416 0.492,-0.738 0,-0.364 -0.246,-1.055 -0.328,-1.401 l -2.907,-9.492 z"
             id="path4742"
             style="fill:#231f20;fill-opacity:1;fill-rule:nonzero;stroke:none"
             inkscape:connector-curvature="0" /></g></g></g><path
       d="m 466.11994,194.40747 115.10635,0 0,-115.111324 -115.10635,0 0,115.111324 z"
       id="path4744"
       style="fill:#e22526;fill-opacity:1;fill-rule:nonzero;stroke:none"
       inkscape:connector-curvature="0" /><g
       transform="matrix(0.99477444,0,0,0.99477444,2.3664445,2.5140245)"
       id="g4746"><g
         clip-path="url(#clipPath4750)"
         id="g4748"><g
           transform="translate(185.5312,486.7964)"
           id="g4754"><path
             d="m 319.0486,-290.15054 -38.391,0 0,22.277 0.715,0 0,-21.216 37.676,0 0,-1.061 z m 2.484,1.061 5.871,0 0,-1.061 -5.871,0 0,1.061 z m 8.356,0 10.324,0 0,-1.061 -10.324,0 0,1.061 z m 12.797,0 7.354,0 0,-1.061 -7.354,0 0,1.061 z m 9.832,0 1.594,0 0,-1.061 -1.594,0 0,1.061 z m 43.886,-1.061 -39.808,0 0,1.061 38.496,0 0,20.056 1.312,0 0,-21.117 z m -1.312,48.891 1.312,0 0,-25.436 -1.312,0 0,25.436 z m -34.746,2.203 34.242,0 0,-1.02 -34.242,1.02 z m -24.481,-3.334 c 0.375,0.504 1.43,1.23 2.672,1.23 1.559,0 2.824,-1.131 2.824,-1.552 l 0,-7.237 -1.3,0 -0.012,6.809 c 0,0.357 -0.914,1.377 -2.297,1.377 -0.75,0 -1.43,-0.305 -1.887,-0.627 m -0.89,15.158 3.504,2.59 2.519,-1.694 c 0.727,-0.568 1.242,-1.359 1.242,-2.355 l 0,-3.926 -1.089,0 0,3.938 c 0,0.861 -0.434,1.523 -1.067,2.015 l -2.144,1.436 -2.965,-2.004 z m 5.812,21.914 0,4.348 -5.718,1.037 6.796,0 0.012,-5.385 -1.09,0 z m -2.66,30.82 0.715,0 0,-20.59 -0.715,0 0,20.59 z m -3.551,-32.05 7.5,0 5.696,-4.577 -1.512,0 -4.945,4.049 -6.739,0.528 z m -6.808,-5.825 20.238,0 3.902,-15.82 -1.078,0.023 -3.808,15.106 -19.254,0.691 z m -47.168,-28.336 0.727,0 0,-22.91 -0.727,0 0,22.91 z m 74.109,-28.324 1.289,0 0,-18.75 -1.289,0 0,18.75 z m -32.332,2.262 31.758,0 0,-1.067 -31.758,1.067 z m 67.817,37.254 -3.493,9.861 -33.246,0.809 34.09,0 3.856,-10.67 -1.207,0 z m -58.993,3.234 7.289,4.694 7.512,-4.694 0,-7.512 -1.312,0 0,7.266 -6.2,4.477 -7.289,-4.231 z m 6.739,11.016 c 0,0.305 0.246,0.527 0.55,0.527 0.293,0 0.528,-0.222 0.528,-0.527 0,-0.281 -0.235,-0.539 -0.528,-0.539 -0.304,0 -0.55,0.258 -0.55,0.539 m -0.856,-4.928 0.164,0.85 1.828,0 -0.586,2.543 1.43,-3.393 -2.836,0 z m -6.34,0.797 c 0,0.252 0.2,0.457 0.469,0.457 0.258,0 0.469,-0.205 0.469,-0.457 0,-0.27 -0.211,-0.475 -0.469,-0.475 -0.269,0 -0.469,0.205 -0.469,0.475 m -0.492,-3.885 0.059,0.703 1.441,0 -0.387,1.957 1.137,-2.66 -2.25,0 z m -40.699,-26.695 -1.078,-0.012 0.012,5.695 -1.946,0.37 3.012,0 0,-6.053 z m 30.07,8.719 1.277,0 0,-22.365 -1.277,0 0,22.365 z m -34.781,2.203 34.195,0 0,-0.879 -34.195,0.879 z m 34.805,-29.977 1.254,0 0,-18.75 -1.254,0 0,18.75 z m -34.805,2.274 34.195,0 0,-0.873 -34.195,0.873 z m 1.219,36.627 3.41,11.191 34.687,0 0,-0.791 -34.16,0 -3.937,-10.4 z m 107.074,-37.881 -36.082,1.254 36.059,0 0.023,-1.254 z m -94.582,18.035 -1.09,-0.012 0,5.695 -1.934,0.37 3.024,0 0,-6.053 z m 8.754,0 -1.078,-0.012 0,5.695 -1.946,0.37 3.024,0 0,-6.053 z m 8.789,0 -1.09,-0.012 0,5.695 -1.922,0.37 3.012,0 0,-6.053 z m 12.621,0 -1.09,-0.012 0.012,5.695 -1.934,0.37 3.012,0 0,-6.053 z m 22.488,0 -1.09,-0.012 0,5.695 -1.921,0.37 3.011,0 0,-6.053 z m 11.578,0 -1.089,-0.012 0,5.695 -1.934,0.37 3.023,0 0,-6.053 z m 8.989,0 -1.09,-0.012 0,5.695 -1.922,0.37 3.012,0 0,-6.053 z m 8.742,0 -1.078,-0.012 0,5.695 -1.934,0.37 3.012,0 0,-6.053 z m 8.789,0 -1.066,-0.012 0,5.695 -1.934,0.37 3,0 0,-6.053 z m -99.75,-27.135 -1.078,0 0.012,5.701 -1.946,0.364 3.012,0 0,-6.065 z m 9,0 -1.09,0 0,5.701 -1.934,0.364 3.024,0 0,-6.065 z m 8.754,0 -1.078,0 0,5.701 -1.946,0.364 3.024,0 0,-6.065 z m 8.789,0 -1.09,0 0,5.701 -1.922,0.364 3.012,0 0,-6.065 z m 46.687,0 -1.089,0 0,5.701 -1.934,0.364 3.023,0 0,-6.065 z m 8.989,0 -1.09,0 0,5.701 -1.922,0.364 3.012,0 0,-6.065 z m 8.742,0 -1.078,0 0,5.701 -1.934,0.364 3.012,0 0,-6.065 z m 8.789,0 -1.066,0 0,5.701 -1.934,0.364 3,0 0,-6.065 z m -99.75,-9.861 -1.078,0 0.012,4.16 -1.946,0.363 3.012,0 0,-4.523 z m 9,0 -1.09,0 0,4.16 -1.934,0.363 3.024,0 0,-4.523 z m 8.754,0 -1.078,0 0,4.16 -1.946,0.363 3.024,0 0,-4.523 z m 8.789,0 -1.09,0 0,4.16 -1.922,0.363 3.012,0 0,-4.523 z m 46.687,0 -1.089,0 0,4.16 -1.934,0.363 3.023,0 0,-4.523 z m 8.989,0 -1.09,0 0,4.16 -1.922,0.363 3.012,0 0,-4.523 z m 8.742,0 -1.078,0 0,4.16 -1.934,0.363 3.012,0 0,-4.523 z m 8.789,0 -1.066,0 0,4.16 -1.934,0.363 3,0 0,-4.523 z m -65.426,50.566 -1.066,-0.012 0,5.883 -1.805,0.516 2.871,0 0,-6.387 z m 0,8.25 -2.648,0 0,1.037 1.476,0 -0.726,4.295 1.898,-5.332 z m 32.051,-8.25 -1.055,-0.012 0,5.883 -1.804,0.516 2.859,0 0,-6.387 z m 0,8.25 -2.625,0 0,1.037 1.476,0 -0.738,4.295 1.887,-5.332 z m 40.476,-9.211 -1.054,0 0,6.926 -2.707,1.049 3.761,0 0,-7.975 z m 0,9.27 -3.562,0 0,1.002 2.332,0 -0.949,6.521 2.179,-7.523 z m -112.441,-9.27 -1.055,0 0,6.926 -2.718,1.049 3.773,0 0,-7.975 z m 0,9.27 -3.562,0 0,1.002 2.32,0 -0.938,6.521 2.18,-7.523 z m 61.066,8.701 c 0,0.252 0.211,0.457 0.469,0.457 0.258,0 0.469,-0.205 0.469,-0.457 0,-0.27 -0.211,-0.475 -0.469,-0.475 -0.258,0 -0.469,0.205 -0.469,0.475 m -0.527,-3.885 0.059,0.703 1.429,0 -0.398,1.957 1.148,-2.66 -2.238,0 z m -2.367,-64.5 -1.406,0 -0.012,13.571 c 0.012,1.992 -1.371,3.386 -3.082,3.386 -0.762,0 -1.465,-0.287 -2.004,-0.75 0.656,0.867 1.699,1.424 2.883,1.424 2.004,0 3.621,-1.611 3.621,-3.615 l 0,-14.016 z m 9.668,0 -1.113,0 -0.012,12.85 c 0.012,1.553 -0.949,2.619 -2.133,2.619 -0.609,0 -1.148,-0.27 -1.547,-0.715 0.492,0.75 1.266,1.242 2.168,1.242 1.465,0 2.649,-1.318 2.649,-2.941 l -0.012,-13.055 z m -22.559,0 -1.113,0 -0.012,12.85 c 0.012,1.553 -0.949,2.619 -2.133,2.619 -0.609,0 -1.16,-0.27 -1.546,-0.715 0.48,0.75 1.265,1.242 2.168,1.242 1.464,0 2.636,-1.318 2.636,-2.941 l 0,-13.055 z m 21.985,24.164 -1.032,0 0,6.586 c 0,0.651 -0.457,1.125 -1.019,1.125 -0.305,0 -0.563,-0.129 -0.762,-0.34 0.258,0.469 0.75,0.774 1.313,0.774 0.832,0 1.5,-0.68 1.5,-1.5 l 0,-6.645 z m -10.957,0 -0.012,6.51 c 0.012,1.541 -1.043,2.607 -2.367,2.607 -0.903,0 -1.688,-0.515 -2.098,-1.265 0.422,1.125 1.5,1.91 2.754,1.91 1.641,0 2.953,-1.313 2.953,-2.941 l -0.012,-6.821 -1.218,0 z m -11.45,0 -1.043,0 0,6.586 c 0,0.651 -0.457,1.125 -1.019,1.125 -0.305,0 -0.563,-0.129 -0.75,-0.34 0.258,0.469 0.75,0.774 1.312,0.774 0.832,0 1.5,-0.68 1.5,-1.5 l 0,-6.645 z m 33.997,0 -1.043,0 0,6.586 c 0.011,0.651 -0.457,1.125 -1.032,1.125 -0.293,0 -0.55,-0.129 -0.738,-0.34 0.258,0.469 0.738,0.774 1.301,0.774 0.832,0 1.512,-0.68 1.512,-1.5 l 0,-6.645 z m 8.871,0 -1.032,0 0,6.586 c 0,0.651 -0.457,1.125 -1.019,1.125 -0.305,0 -0.563,-0.129 -0.75,-0.34 0.246,0.469 0.738,0.774 1.301,0.774 0.832,0 1.5,-0.68 1.5,-1.5 l 0,-6.645 z m 8.8,0 -1.019,0 0,6.586 c 0,0.651 -0.469,1.125 -1.031,1.125 -0.305,0 -0.563,-0.129 -0.75,-0.34 0.246,0.469 0.75,0.774 1.3,0.774 0.832,0 1.512,-0.68 1.512,-1.5 l -0.012,-6.645 z m 8.731,0 -1.031,0 -0.012,6.586 c 0.012,0.651 -0.445,1.125 -1.02,1.125 -0.293,0 -0.562,-0.129 -0.75,-0.34 0.258,0.469 0.75,0.774 1.313,0.774 0.832,0 1.512,-0.68 1.512,-1.5 l -0.012,-6.645 z m -73.195,0 -1.043,0 0,6.586 c 0,0.651 -0.457,1.125 -1.032,1.125 -0.293,0 -0.562,-0.129 -0.738,-0.34 0.258,0.469 0.738,0.774 1.313,0.774 0.82,0 1.5,-0.68 1.5,-1.5 l 0,-6.645 z m -8.731,0 -1.031,0 -0.012,6.586 c 0.012,0.651 -0.445,1.125 -1.019,1.125 -0.293,0 -0.563,-0.129 -0.739,-0.34 0.246,0.469 0.739,0.774 1.301,0.774 0.832,0 1.512,-0.68 1.512,-1.5 l -0.012,-6.645 z m -8.801,0 -1.031,0 0,6.586 c 0,0.651 -0.457,1.125 -1.031,1.125 -0.293,0 -0.563,-0.129 -0.75,-0.34 0.258,0.469 0.75,0.774 1.301,0.774 0.843,0 1.511,-0.68 1.511,-1.5 l 0,-6.645 z m -8.882,0 -1.043,0 0,6.586 c 0,0.651 -0.446,1.125 -1.02,1.125 -0.293,0 -0.563,-0.129 -0.75,-0.34 0.27,0.469 0.75,0.774 1.313,0.774 0.832,0 1.5,-0.68 1.5,-1.5 l 0,-6.645 z m 24.281,36.75 c 0,0.252 0.199,0.475 0.457,0.475 0.258,0 0.469,-0.223 0.469,-0.475 0,-0.252 -0.211,-0.457 -0.469,-0.457 -0.258,0 -0.457,0.205 -0.457,0.457 m 1.769,-7.031 -0.949,0 0,4.459 c 0,0.697 -0.504,1.201 -1.09,1.201 -0.187,0 -0.375,-0.058 -0.527,-0.14 0.281,0.269 0.644,0.439 1.066,0.439 0.821,0 1.5,-0.668 1.5,-1.506 l 0,-4.453 z m -9.328,7.031 c 0,0.252 0.211,0.475 0.457,0.475 0.27,0 0.457,-0.223 0.457,-0.475 0,-0.252 -0.187,-0.457 -0.457,-0.457 -0.246,0 -0.457,0.205 -0.457,0.457 m 1.758,-7.031 -0.949,0 0,4.459 c 0,0.697 -0.481,1.201 -1.078,1.201 -0.2,0 -0.364,-0.058 -0.528,-0.14 0.27,0.269 0.645,0.439 1.055,0.439 0.832,0 1.5,-0.668 1.5,-1.506 l 0,-4.453 z m -9.973,7.031 c 0,0.252 0.211,0.475 0.457,0.475 0.258,0 0.469,-0.223 0.469,-0.475 0,-0.252 -0.211,-0.457 -0.469,-0.457 -0.246,0 -0.457,0.205 -0.457,0.457 m 1.77,-7.031 -0.949,0 0,4.459 c 0,0.697 -0.493,1.201 -1.078,1.201 -0.2,0 -0.375,-0.058 -0.54,-0.14 0.27,0.269 0.645,0.439 1.067,0.439 0.832,0 1.5,-0.668 1.5,-1.506 l 0,-4.453 z m 3.433,9.486 -0.832,0 0,2.116 c 0,0.603 -0.421,1.031 -0.937,1.031 -0.164,0 -0.328,-0.047 -0.469,-0.117 0.246,0.234 0.574,0.375 0.938,0.375 0.726,0 1.3,-0.592 1.3,-1.313 l 0,-2.092 z m 8.754,0 -0.832,0 0,2.116 c 0,0.603 -0.422,1.031 -0.937,1.031 -0.164,0 -0.317,-0.047 -0.469,-0.117 0.234,0.234 0.574,0.375 0.938,0.375 0.714,0 1.3,-0.592 1.3,-1.313 l 0,-2.092 z m 54.141,0 -0.844,0 0,2.116 c 0,0.603 -0.422,1.031 -0.937,1.031 -0.188,0 -0.328,-0.047 -0.469,-0.117 0.246,0.234 0.574,0.375 0.937,0.375 0.727,0 1.313,-0.592 1.313,-1.313 l 0,-2.092 z m -4.477,-2.455 c 0,0.252 0.2,0.475 0.457,0.475 0.27,0 0.469,-0.223 0.469,-0.475 0,-0.252 -0.199,-0.457 -0.469,-0.457 -0.257,0 -0.457,0.205 -0.457,0.457 m 1.77,-7.031 -0.949,0 0,4.459 c 0,0.697 -0.492,1.201 -1.09,1.201 -0.188,0 -0.363,-0.058 -0.527,-0.14 0.281,0.269 0.644,0.439 1.066,0.439 0.832,0 1.5,-0.668 1.5,-1.506 l 0,-4.453 z m 11.59,9.486 -0.821,0 0,2.116 c 0,0.603 -0.421,1.031 -0.949,1.031 -0.164,0 -0.328,-0.047 -0.457,-0.117 0.235,0.234 0.563,0.375 0.926,0.375 0.738,0 1.301,-0.592 1.301,-1.313 l 0,-2.092 z m -5.051,-2.455 c 0,0.252 0.199,0.475 0.457,0.475 0.258,0 0.457,-0.223 0.457,-0.475 0,-0.252 -0.199,-0.457 -0.457,-0.457 -0.258,0 -0.457,0.205 -0.457,0.457 m 1.77,-7.031 -0.961,0 0,4.459 c 0,0.697 -0.481,1.201 -1.079,1.201 -0.187,0 -0.375,-0.058 -0.527,-0.14 0.27,0.269 0.645,0.439 1.055,0.439 0.844,0 1.512,-0.668 1.512,-1.506 l 0,-4.453 z m 5.789,7.031 c 0,0.252 0.211,0.475 0.468,0.475 0.258,0 0.457,-0.223 0.457,-0.475 0,-0.252 -0.199,-0.457 -0.457,-0.457 -0.257,0 -0.468,0.205 -0.468,0.457 m 1.781,-7.031 -0.961,0 0,4.459 c 0,0.697 -0.481,1.201 -1.078,1.201 -0.199,0 -0.375,-0.058 -0.528,-0.14 0.27,0.269 0.633,0.439 1.055,0.439 0.832,0 1.512,-0.668 1.512,-1.506 l 0,-4.453 z m -91.465,32.906 c 0,0.27 0.223,0.504 0.504,0.504 0.281,0 0.504,-0.234 0.504,-0.504 0,-0.281 -0.223,-0.504 -0.504,-0.504 -0.281,0 -0.504,0.223 -0.504,0.504 m 3,-16.353 -1.078,0 0,5.607 c 0,1.477 -1.02,2.496 -2.285,2.496 -0.41,0 -0.785,-0.093 -1.114,-0.281 0.469,0.381 1.067,0.609 1.723,0.609 1.524,0 2.754,-1.23 2.754,-2.742 l 0,-5.689 z m -0.516,9.691 -3.328,0 0,1.084 2.098,-0.012 -0.668,4.248 1.898,-5.32 z m 96.293,6.662 c 0,0.27 0.235,0.504 0.504,0.504 0.282,0 0.504,-0.234 0.504,-0.504 0,-0.281 -0.222,-0.504 -0.504,-0.504 -0.269,0 -0.504,0.223 -0.504,0.504 m 3,-16.353 -1.066,0 -0.023,5.607 c 0.023,1.477 -1.008,2.496 -2.262,2.496 -0.41,0 -0.785,-0.093 -1.113,-0.281 0.468,0.381 1.066,0.609 1.734,0.609 1.512,0 2.73,-1.23 2.73,-2.742 l 0,-5.689 z m -0.504,9.691 -3.339,0 0,1.084 2.109,-0.012 -0.668,4.248 1.898,-5.32 z m -50.707,11.338 c 1.383,0 2.508,-1.096 2.579,-2.461 l -0.879,0 c -0.2,1.02 -1.09,1.781 -2.145,1.781 -1.031,0 -1.898,-0.703 -2.133,-1.658 0.129,1.313 1.231,2.338 2.578,2.338 m 7.911,-41.965 7.734,0 0,-1.054 -8.191,0.216 c -0.868,2.18 -4.114,3.791 -7.934,3.791 -3.574,0 -6.621,-1.429 -7.711,-3.398 1.043,2.168 4.301,3.738 8.168,3.738 3.598,0 6.668,-1.365 7.934,-3.293 m 9.597,-1.992 0,-23.414 -1.242,0 -0.035,23.414 1.277,0 z"
             id="path4756"
             style="fill:#231f20;fill-opacity:1;fill-rule:nonzero;stroke:none"
             inkscape:connector-curvature="0" /></g></g></g></g></svg>