<?xml version="1.0" encoding="UTF-8" standalone="no"?>
<!-- Created with Inkscape (http://www.inkscape.org/) -->

<svg
   xmlns:dc="http://purl.org/dc/elements/1.1/"
   xmlns:cc="http://creativecommons.org/ns#"
   xmlns:rdf="http://www.w3.org/1999/02/22-rdf-syntax-ns#"
   xmlns:svg="http://www.w3.org/2000/svg"
   xmlns="http://www.w3.org/2000/svg"
   xmlns:sodipodi="http://sodipodi.sourceforge.net/DTD/sodipodi-0.dtd"
   xmlns:inkscape="http://www.inkscape.org/namespaces/inkscape"
   width="10.583333mm"
   height="10.583333mm"
   viewBox="0 0 37.499999 37.499999"
   id="svg8724"
   version="1.1"
   inkscape:version="0.91 r13725"
   sodipodi:docname="github_icon.svg">
  <defs
     id="defs8726">
    <clipPath
       clipPathUnits="userSpaceOnUse"
       id="clipPath6602">
      <path
         d="m 254.3678,269.8438 -1.3678,0 -1.3684,0 c -1.1885,0 -5.895,0.0906 -5.895,5.7656 0,1.3062 0.4475,2.2594 1.18,3.0562 -0.1169,0.2875 -0.1229,1.925 0.5003,3.4938 0,0 1.43,-0.1563 3.5937,-1.6406 0.4535,0.125 1.2216,0.1875 1.9894,0.1875 0.7669,0 1.535,-0.0625 1.9891,-0.1875 2.1634,1.4843 3.5931,1.6406 3.5931,1.6406 0.6234,-1.5688 0.6175,-3.2063 0.5006,-3.4938 0.7325,-0.7968 1.1803,-1.75 1.1803,-3.0562 0,-5.675 -4.7069,-5.7656 -5.8953,-5.7656 l 0,0 z M 253,291 c -8.2847,0 -15,-6.7156 -15,-15 0,-8.2844 6.7153,-15 15,-15 8.2837,0 15,6.7156 15,15 0,8.2844 -6.7163,15 -15,15 l 0,0 z m 2.5097,-18.875 c -0.5672,0 -1.0266,0.6375 -1.0266,1.4219 0,0.7843 0.4594,1.4219 1.0266,1.4219 0.5662,0 1.0259,-0.6376 1.0259,-1.4219 0,-0.7844 -0.4597,-1.4219 -1.0259,-1.4219 l 0,0 z m -5.02,0 c -0.5666,0 -1.026,0.6375 -1.026,1.4219 0,0.7843 0.4594,1.4219 1.026,1.4219 0.5669,0 1.0265,-0.6376 1.0265,-1.4219 0,-0.7844 -0.4596,-1.4219 -1.0265,-1.4219 l 0,0 z m 2.5322,3.9562 -0.0219,0 -0.0225,0 c -1.8616,0 -3.5019,0.4719 -4.4709,-0.4187 -0.5813,-0.5344 -0.8257,-1.1781 -0.8257,-1.8719 0,-2.8937 2.3188,-3.25 5.2966,-3.25 l 0.0444,0 c 2.9778,0 5.2965,0.3563 5.2965,3.25 0,0.6938 -0.2447,1.3375 -0.8256,1.8719 -0.9694,0.8906 -2.6094,0.4187 -4.4709,0.4187 l 0,0 z"
         id="path6604"
         inkscape:connector-curvature="0"
         style="clip-rule:evenodd" />
    </clipPath>
    <clipPath
       clipPathUnits="userSpaceOnUse"
       id="clipPath6608">
      <path
         d="m 0,0 1440,0 0,4886 L 0,4886 0,0 Z"
         id="path6610"
         inkscape:connector-curvature="0" />
    </clipPath>
  </defs>
  <sodipodi:namedview
     id="base"
     pagecolor="#ffffff"
     bordercolor="#666666"
     borderopacity="1.0"
     inkscape:pageopacity="0.0"
     inkscape:pageshadow="2"
     inkscape:zoom="2.8"
     inkscape:cx="105.02928"
     inkscape:cy="32.753897"
     inkscape:document-units="px"
     inkscape:current-layer="layer1"
     showgrid="false"
     fit-margin-top="0"
     fit-margin-left="0"
     fit-margin-right="0"
     fit-margin-bottom="0"
     inkscape:window-width="1535"
     inkscape:window-height="876"
     inkscape:window-x="65"
     inkscape:window-y="24"
     inkscape:window-maximized="1" />
  <metadata
     id="metadata8729">
    <rdf:RDF>
      <cc:Work
         rdf:about="">
        <dc:format>image/svg+xml</dc:format>
        <dc:type
           rdf:resource="http://purl.org/dc/dcmitype/StillImage" />
        <dc:title></dc:title>
      </cc:Work>
    </rdf:RDF>
  </metadata>
  <g
     inkscape:label="Layer 1"
     inkscape:groupmode="layer"
     id="layer1"
     transform="translate(-561.25,-482.18363)">
    <g
       transform="matrix(1.25,0,0,-1.25,263.75,845.93363)"
       id="g6598">
      <g
         id="g6600"
         clip-path="url(#clipPath6602)">
        <g
           id="g6606"
           clip-path="url(#clipPath6608)">
          <path
             d="m 233,296 40,0 0,-40 -40,0 0,40 z"
             style="fill:#a2ce62;fill-opacity:1;fill-rule:nonzero;stroke:none"
             id="path6612"
             inkscape:connector-curvature="0" />
        </g>
      </g>
    </g>
  </g>
</svg>
