<?xml version="1.0" encoding="UTF-8" standalone="no"?>
<svg
   xmlns:dc="http://purl.org/dc/elements/1.1/"
   xmlns:cc="http://creativecommons.org/ns#"
   xmlns:rdf="http://www.w3.org/1999/02/22-rdf-syntax-ns#"
   xmlns:svg="http://www.w3.org/2000/svg"
   xmlns="http://www.w3.org/2000/svg"
   version="1.1"
   id="svg7995"
   viewBox="0 0 154.16939 118.90371"
   height="33.55727mm"
   width="43.510029mm">
  <defs
     id="defs7997">
    <clipPath
       id="clipPath5888"
       clipPathUnits="userSpaceOnUse">
      <path
         style="clip-rule:evenodd"
         id="path5890"
         d="m 647.6434,3477.345 c 1.9336,2.029 6.093,1.201 9.2869,-1.846 3.1953,-3.048 4.2169,-7.162 2.2838,-9.19 -1.935,-2.027 -6.0925,-1.201 -9.2883,1.845 -3.1951,3.048 -4.2172,7.162 -2.2824,9.191 m 9.7624,19.356 c 2.5691,1.488 6.5506,-0.587 8.8941,-4.636 2.3433,-4.046 2.1599,-8.534 -0.4088,-10.019 -2.5688,-1.488 -6.5518,0.587 -8.8936,4.634 -2.3438,4.048 -2.1608,8.533 0.4083,10.021 m 22.4296,6.421 c 2.9676,0.07 5.4612,-3.663 5.5712,-8.341 0.1092,-4.675 -2.2066,-8.522 -5.1756,-8.59 -2.9678,-0.07 -5.4621,3.665 -5.5709,8.34 -0.1095,4.676 2.2083,8.521 5.1753,8.591 m 18.9296,-12.018 c 2.6426,-0.791 3.7743,-4.808 2.5277,-8.97 -1.2443,-4.163 -4.3983,-6.897 -7.0394,-6.105 -2.6422,0.79 -3.7739,4.805 -2.5294,8.969 1.2478,4.162 4.3986,6.897 7.0411,6.106 m -37.2238,-33.163 c -1.2188,-2.334 -1.7022,-3.771 -1.5984,-5.089 0.2844,-3.621 3.3115,-6.451 6.8835,-6.452 2.5645,0 5.6429,0.971 8.5471,2.808 5.5005,3.476 10.2484,4.643 16.1868,4.125 5.9369,-0.517 10.6141,4.849 8.5365,9.457 -2.5551,5.664 -9.2577,5.796 -15.3844,11.013 -1.0961,0.933 -2.1406,2.334 -3.1892,3.528 -1.9259,2.198 -4.8545,2.975 -7.8123,2.008 -3.208,-1.049 -4.759,-4.53 -5.133,-7.336 -0.8607,-6.458 -3.0404,-6.41 -7.0366,-14.062" />
    </clipPath>
    <clipPath
       id="clipPath5894"
       clipPathUnits="userSpaceOnUse">
      <path
         id="path5896"
         d="m 0,0 1440,0 0,4886 L 0,4886 0,0 Z" />
    </clipPath>
    <clipPath
       id="clipPath5952"
       clipPathUnits="userSpaceOnUse">
      <path
         style="clip-rule:evenodd"
         id="path5954"
         d="m 740,3448 20,0 0,10 -20,0 0,-10 z m 5,-15 10,0 0,10 -10,0 0,-10 z m 5,-15 10,0 0,10 -10,0 0,-10 z m -55,0 50,0 0,10 -50,0 0,-10 z m -15,0 10,0 0,10 -10,0 0,-10 z m 5,15 10,0 0,10 -10,0 0,-10 z m -5,15 10,0 0,10 -10,0 0,-10 z m 20,-15 10,0 0,10 -10,0 0,-10 z m -5,15 10,0 0,10 -10,0 0,-10 z m 20,-15 10,0 0,10 -10,0 0,-10 z m -5,15 10,0 0,10 -10,0 0,-10 z m 20,-15 10,0 0,10 -10,0 0,-10 z m -5,15 10,0 0,10 -10,0 0,-10 z m 38,20 -86,0 c -3.85,0 -7,-3.15 -7,-7 l 0,-46 c 0,-3.85 3.15,-7 7,-7 l 86,0 c 3.85,0 7,3.15 7,7 l 0,46 c 0,3.85 -3.15,7 -7,7 l 0,0 z" />
    </clipPath>
    <clipPath
       id="clipPath5958"
       clipPathUnits="userSpaceOnUse">
      <path
         id="path5960"
         d="m 0,0 1440,0 0,4886 L 0,4886 0,0 Z" />
    </clipPath>
  </defs>
  <metadata
     id="metadata8000">
    <rdf:RDF>
      <cc:Work
         rdf:about="">
        <dc:format>image/svg+xml</dc:format>
        <dc:type
           rdf:resource="http://purl.org/dc/dcmitype/StillImage" />
        <dc:title></dc:title>
      </cc:Work>
    </rdf:RDF>
  </metadata>
  <g
     transform="translate(-188.62959,-347.19609)"
     id="layer1">
    <g
       id="g5884"
       transform="matrix(1.25,0,0,-1.25,-619.70102,4726.0998)">
      <g
         clip-path="url(#clipPath5888)"
         id="g5886">
        <g
           clip-path="url(#clipPath5894)"
           id="g5892">
          <path
             id="path5898"
             style="fill:#a2ce62;fill-opacity:1;fill-rule:nonzero;stroke:none"
             d="m 635.4219,3496.499 64.316,17.234 16.0276,-59.816 -64.316,-17.234 -16.0276,59.816 z" />
        </g>
      </g>
    </g>
    <g
       id="g5948"
       transform="matrix(1.25,0,0,-1.25,-619.70102,4726.0998)">
      <g
         clip-path="url(#clipPath5952)"
         id="g5950">
        <g
           clip-path="url(#clipPath5958)"
           id="g5956">
          <path
             id="path5962"
             style="fill:#313131;fill-opacity:1;fill-rule:nonzero;stroke:none"
             d="m 665,3473 110,0 0,-70 -110,0 0,70 z" />
        </g>
      </g>
    </g>
  </g>
</svg>
