<?xml version="1.0" encoding="UTF-8" standalone="no"?>
<svg
   xmlns:dc="http://purl.org/dc/elements/1.1/"
   xmlns:cc="http://creativecommons.org/ns#"
   xmlns:rdf="http://www.w3.org/1999/02/22-rdf-syntax-ns#"
   xmlns:svg="http://www.w3.org/2000/svg"
   xmlns="http://www.w3.org/2000/svg"
   version="1.1"
   id="svg8630"
   viewBox="0 0 172.966 112.5"
   height="31.75mm"
   width="48.81485mm">
  <defs
     id="defs8632">
    <clipPath
       id="clipPath5904"
       clipPathUnits="userSpaceOnUse">
      <path
         style="clip-rule:evenodd"
         id="path5906"
         d="m 1238.994,3460.173 -11.875,8.152 c -0.671,0.462 -1.619,0.879 -2.605,1.184 -0.985,0.303 -2.01,0.491 -2.835,0.491 l -34.179,0 4.003,-23 30.176,0 c 0.825,0 1.85,0.189 2.835,0.492 0.986,0.303 1.934,0.722 2.605,1.181 l 11.875,8.153 c 0.671,0.461 1.006,1.066 1.006,1.674 0,0.607 -0.335,1.214 -1.006,1.673 l 0,0 z M 1182.5,3481 l -4.5,0 c -1.099,0 -2,-0.9 -2,-2 l 0,-19 -17.679,0 c -0.826,0 -1.85,-0.188 -2.835,-0.493 -0.986,-0.301 -1.934,-0.72 -2.605,-1.181 l -11.875,-8.151 c -0.671,-0.46 -1.006,-1.068 -1.006,-1.675 0,-0.607 0.335,-1.212 1.006,-1.674 l 11.875,-8.151 c 0.671,-0.46 1.619,-0.879 2.605,-1.183 0.985,-0.303 2.009,-0.492 2.835,-0.492 l 17.679,0 0,-44 c 0,-1.099 0.901,-2 2,-2 l 4.5,0 c 1.1,0 2,0.901 2,2 l 0,86 c 0,1.1 -0.9,2 -2,2 l 0,0 z" />
    </clipPath>
    <clipPath
       id="clipPath5910"
       clipPathUnits="userSpaceOnUse">
      <path
         id="path5912"
         d="m 0,0 1440,0 0,4886 L 0,4886 0,0 Z" />
    </clipPath>
    <clipPath
       id="clipPath5920"
       clipPathUnits="userSpaceOnUse">
      <path
         style="clip-rule:evenodd"
         id="path5922"
         d="m 1211.68,3429.734 c 1.304,-0.712 1.451,-2.955 0.329,-5.009 -1.122,-2.055 -3.089,-3.142 -4.393,-2.431 -1.304,0.713 -1.451,2.955 -0.33,5.01 1.123,2.055 3.089,3.142 4.394,2.43 m 11.252,-2.343 c 1.115,-1.112 0.598,-3.436 -1.154,-5.191 -1.75,-1.755 -4.074,-2.277 -5.187,-1.166 -1.114,1.112 -0.598,3.436 1.153,5.191 1.751,1.755 4.073,2.277 5.188,1.166 m 6.366,-10.606 c 0.443,-1.51 -1.127,-3.299 -3.507,-3.997 -2.379,-0.698 -4.667,-0.04 -5.109,1.471 -0.443,1.511 1.127,3.301 3.506,3.998 2.38,0.697 4.667,0.038 5.11,-1.472 m -3.557,-11.343 c -0.043,-1.462 -1.944,-2.593 -4.247,-2.525 -2.303,0.066 -4.135,1.306 -4.093,2.767 0.043,1.462 1.943,2.592 4.247,2.526 2.302,-0.068 4.135,-1.306 4.093,-2.768 m -22.091,14.512 c -1.363,0.304 -2.165,0.354 -2.825,0.121 -1.816,-0.643 -2.85,-2.582 -2.36,-4.411 0.351,-1.313 1.271,-2.757 2.611,-3.992 2.535,-2.34 3.784,-4.611 4.333,-7.723 0.55,-3.111 3.94,-4.77 6.015,-3.074 2.55,2.086 1.698,5.536 3.529,9.39 0.327,0.689 0.901,1.416 1.369,2.117 0.861,1.288 0.857,2.894 -0.044,4.276 -0.977,1.499 -2.973,1.816 -4.461,1.622 -3.426,-0.445 -3.7,0.678 -8.167,1.674" />
    </clipPath>
    <clipPath
       id="clipPath5926"
       clipPathUnits="userSpaceOnUse">
      <path
         id="path5928"
         d="m 0,0 1440,0 0,4886 L 0,4886 0,0 Z" />
    </clipPath>
    <clipPath
       id="clipPath5936"
       clipPathUnits="userSpaceOnUse">
      <path
         style="clip-rule:evenodd"
         id="path5938"
         d="m 1260.68,3437.734 c 1.304,-0.712 1.451,-2.955 0.329,-5.009 -1.122,-2.055 -3.089,-3.142 -4.393,-2.431 -1.304,0.713 -1.451,2.955 -0.33,5.01 1.123,2.055 3.089,3.142 4.394,2.43 m 11.252,-2.343 c 1.115,-1.112 0.598,-3.436 -1.154,-5.191 -1.75,-1.755 -4.074,-2.277 -5.187,-1.166 -1.114,1.112 -0.598,3.436 1.153,5.191 1.751,1.755 4.073,2.277 5.188,1.166 m 6.366,-10.606 c 0.443,-1.51 -1.127,-3.299 -3.507,-3.997 -2.379,-0.698 -4.667,-0.04 -5.109,1.471 -0.443,1.511 1.127,3.301 3.506,3.998 2.38,0.697 4.667,0.038 5.11,-1.472 m -3.557,-11.343 c -0.043,-1.462 -1.944,-2.593 -4.247,-2.525 -2.303,0.066 -4.135,1.306 -4.093,2.767 0.043,1.462 1.943,2.592 4.247,2.526 2.302,-0.068 4.135,-1.306 4.093,-2.768 m -22.091,14.512 c -1.363,0.304 -2.165,0.354 -2.825,0.121 -1.816,-0.643 -2.85,-2.582 -2.36,-4.411 0.351,-1.313 1.271,-2.757 2.611,-3.992 2.535,-2.34 3.784,-4.611 4.333,-7.723 0.55,-3.111 3.94,-4.77 6.015,-3.074 2.55,2.086 1.698,5.536 3.529,9.39 0.327,0.689 0.901,1.416 1.369,2.117 0.861,1.288 0.857,2.894 -0.044,4.276 -0.977,1.499 -2.973,1.816 -4.461,1.622 -3.426,-0.445 -3.7,0.678 -8.167,1.674" />
    </clipPath>
    <clipPath
       id="clipPath5942"
       clipPathUnits="userSpaceOnUse">
      <path
         id="path5944"
         d="m 0,0 1440,0 0,4886 L 0,4886 0,0 Z" />
    </clipPath>
  </defs>
  <metadata
     id="metadata8635">
    <rdf:RDF>
      <cc:Work
         rdf:about="">
        <dc:format>image/svg+xml</dc:format>
        <dc:type
           rdf:resource="http://purl.org/dc/dcmitype/StillImage" />
        <dc:title></dc:title>
      </cc:Work>
    </rdf:RDF>
  </metadata>
  <g
     transform="translate(-262.0884,-356.1122)"
     id="layer1">
    <g
       id="g5900"
       transform="matrix(1.25,0,0,-1.25,-1162.9116,4707.3622)">
      <g
         clip-path="url(#clipPath5904)"
         id="g5902">
        <g
           clip-path="url(#clipPath5910)"
           id="g5908">
          <path
             id="path5914"
             style="fill:#313131;fill-opacity:1;fill-rule:nonzero;stroke:none"
             d="m 1135,3486 110,0 0,-100 -110,0 0,100 z" />
        </g>
      </g>
    </g>
    <g
       id="g5916"
       transform="matrix(1.25,0,0,-1.25,-1162.9116,4707.3622)">
      <g
         clip-path="url(#clipPath5920)"
         id="g5918">
        <g
           clip-path="url(#clipPath5926)"
           id="g5924">
          <path
             id="path5930"
             style="fill:#a2ce62;fill-opacity:1;fill-rule:nonzero;stroke:none"
             d="m 1220.672,3441.83 20,-34.641 -32.502,-18.765 -20,34.641 32.502,18.765 z" />
        </g>
      </g>
    </g>
    <g
       id="g5932"
       transform="matrix(1.25,0,0,-1.25,-1162.9116,4707.3622)">
      <g
         clip-path="url(#clipPath5936)"
         id="g5934">
        <g
           clip-path="url(#clipPath5942)"
           id="g5940">
          <path
             id="path5946"
             style="fill:#a2ce62;fill-opacity:1;fill-rule:nonzero;stroke:none"
             d="m 1269.672,3449.83 20,-34.641 -32.502,-18.765 -20,34.641 32.502,18.765 z" />
        </g>
      </g>
    </g>
  </g>
</svg>
