<?xml version="1.0" encoding="UTF-8" standalone="no"?>
<svg
   xmlns:dc="http://purl.org/dc/elements/1.1/"
   xmlns:cc="http://creativecommons.org/ns#"
   xmlns:rdf="http://www.w3.org/1999/02/22-rdf-syntax-ns#"
   xmlns:svg="http://www.w3.org/2000/svg"
   xmlns="http://www.w3.org/2000/svg"
   version="1.1"
   id="svg9319"
   viewBox="0 0 24.999999 20.318749"
   height="5.7344027mm"
   width="7.0555553mm">
  <defs
     id="defs9321">
    <clipPath
       id="clipPath6800"
       clipPathUnits="userSpaceOnUse">
      <path
         style="clip-rule:evenodd"
         id="path6802"
         d="m 261,2272.568 c -0.737,-0.326 -1.5283,-0.548 -2.3565,-0.646 0.8456,0.506 1.4978,1.311 1.8043,2.27 -0.7935,-0.47 -1.6717,-0.814 -2.6065,-0.996 -0.7478,0.798 -1.8152,1.296 -2.9956,1.296 -2.2653,0 -4.1022,-1.837 -4.1022,-4.105 0,-0.322 0.0348,-0.635 0.1065,-0.935 -3.4109,0.172 -6.4348,1.805 -8.4587,4.287 -0.3522,-0.604 -0.5543,-1.311 -0.5543,-2.063 0,-1.421 0.7239,-2.678 1.8239,-3.415 -0.6718,0.022 -1.3044,0.207 -1.8587,0.513 l 0,-0.05 c 0,-1.989 1.4152,-3.648 3.2913,-4.024 -0.3435,-0.093 -0.7065,-0.143 -1.0805,-0.143 -0.2652,0 -0.5217,0.024 -0.7717,0.074 0.5217,-1.631 2.037,-2.818 3.8326,-2.85 -1.4043,-1.103 -3.1739,-1.757 -5.0956,-1.757 -0.3305,0 -0.6587,0.02 -0.9783,0.057 1.8152,-1.163 3.9717,-1.844 6.2891,-1.844 7.5479,0 11.6761,6.252 11.6761,11.676 0,0.176 -0.004,0.355 -0.013,0.531 0.8021,0.578 1.4978,1.3 2.0478,2.124" />
    </clipPath>
    <clipPath
       id="clipPath6806"
       clipPathUnits="userSpaceOnUse">
      <path
         id="path6808"
         d="m 0,0 1440,0 0,4886 L 0,4886 0,0 Z" />
    </clipPath>
  </defs>
  <metadata
     id="metadata9324">
    <rdf:RDF>
      <cc:Work
         rdf:about="">
        <dc:format>image/svg+xml</dc:format>
        <dc:type
           rdf:resource="http://purl.org/dc/dcmitype/StillImage" />
        <dc:title></dc:title>
      </cc:Work>
    </rdf:RDF>
  </metadata>
  <g
     transform="translate(-433.21429,-379.3457)"
     id="layer1">
    <g
       id="g6796"
       transform="matrix(1.25,0,0,-1.25,131.96429,3222.4607)">
      <g
         clip-path="url(#clipPath6800)"
         id="g6798">
        <g
           clip-path="url(#clipPath6806)"
           id="g6804">
          <path
             id="path6810"
             style="fill:#a2ce62;fill-opacity:1;fill-rule:nonzero;stroke:none"
             d="m 236,2279.492 30,0 0,-26.255 -30,0 0,26.255 z" />
        </g>
      </g>
    </g>
  </g>
</svg>
